<mxfile host="app.diagrams.net" modified="2023-11-09T20:24:34.514Z" agent="Mozilla/5.0 (Windows NT 10.0; Win64; x64) AppleWebKit/537.36 (KHTML, like Gecko) Chrome/119.0.0.0 Safari/537.36" etag="5nXPE9JzpyB0UNcHert1" version="22.1.0" type="github">
  <diagram name="Page-1" id="V9l4_XFgl_bg2JVZ84Pb">
    <mxGraphModel dx="1877" dy="630" grid="1" gridSize="10" guides="1" tooltips="1" connect="1" arrows="1" fold="1" page="1" pageScale="1" pageWidth="827" pageHeight="1169" math="0" shadow="0">
      <root>
        <mxCell id="0" />
        <mxCell id="1" parent="0" />
        <mxCell id="k1EBhxcsPVhUVIul-I8J-1" value="" style="rounded=1;whiteSpace=wrap;html=1;strokeColor=#0070F2;strokeWidth=1;arcSize=5;fillColor=#EBF8FF;perimeterSpacing=0;" vertex="1" parent="1">
          <mxGeometry x="170" y="60" width="469.41" height="260" as="geometry" />
        </mxCell>
        <mxCell id="k1EBhxcsPVhUVIul-I8J-2" value="" style="rounded=1;whiteSpace=wrap;html=1;strokeColor=#0070F2;strokeWidth=1;arcSize=5;fillColor=#FFFFFF;perimeterSpacing=0;" vertex="1" parent="1">
          <mxGeometry x="180" y="100" width="400" height="210" as="geometry" />
        </mxCell>
        <mxCell id="k1EBhxcsPVhUVIul-I8J-3" value="" style="rounded=1;whiteSpace=wrap;html=1;fillColor=#f5f6f7;dashed=1;strokeColor=#475e75;" vertex="1" parent="1">
          <mxGeometry x="11" y="99" width="120" height="185" as="geometry" />
        </mxCell>
        <mxCell id="k1EBhxcsPVhUVIul-I8J-4" value="" style="rounded=1;whiteSpace=wrap;html=1;strokeColor=#0040B0;strokeWidth=1;arcSize=5;fillColor=#FFFFFF;perimeterSpacing=0;" vertex="1" parent="1">
          <mxGeometry x="710" y="90" width="167" height="78" as="geometry" />
        </mxCell>
        <mxCell id="k1EBhxcsPVhUVIul-I8J-5" value="" style="shape=image;verticalLabelPosition=bottom;verticalAlign=top;imageAspect=0;aspect=fixed;image=data:image/svg+xml,PHN2ZyB4bWxucz0iaHR0cDovL3d3dy53My5vcmcvMjAwMC9zdmciIHZpZXdCb3g9IjAgMCA0OCA0MiI+PGRlZnM+PHN0eWxlPi5jbHMtMXtmaWxsOiM1OTU5NTk7fTwvc3R5bGU+PC9kZWZzPjx0aXRsZT5sYXB0b3A8L3RpdGxlPjxnIGRhdGEtbmFtZT0iTGF5ZXIgMiIgaWQ9IkxheWVyXzIiPjxnIGlkPSJsYXB0b3AiPjxwYXRoIGQ9Ik00OCwzOC41MzFBMy41MjEsMy41MjEsMCwwLDEsNDQuNTMyLDQySDMuNDY5YTMuMzMyLDMuMzMyLDAsMCwxLTIuNDM4LTEuMDMxQTMuMzMyLDMuMzMyLDAsMCwxLDAsMzguNTMxTDYuODQ0LDMwSDQxLjE1N1pNOSwyN2EyLjgzMywyLjgzMywwLDAsMS0yLjE1Ni0uODkxQTIuOTYxLDIuOTYxLDAsMCwxLDYsMjRWM0EyLjg4OSwyLjg4OSwwLDAsMSw5LDBIMzlhMi45NjYsMi45NjYsMCwwLDEsMi4xMS44NDRBMi44MzcsMi44MzcsMCwwLDEsNDIsM1YyNGEzLjA0MSwzLjA0MSwwLDAsMS0zLDNabTAtM0gzOVYzSDlaTTMwLDM5bC0zLTNIMjFsLTMsM1oiIGNsYXNzPSJjbHMtMSIvPjwvZz48L2c+PC9zdmc+" vertex="1" parent="1">
          <mxGeometry x="47" y="134" width="48" height="42" as="geometry" />
        </mxCell>
        <mxCell id="k1EBhxcsPVhUVIul-I8J-6" value="" style="shape=image;verticalLabelPosition=bottom;verticalAlign=top;imageAspect=0;aspect=fixed;image=data:image/svg+xml,PHN2ZyB4bWxucz0iaHR0cDovL3d3dy53My5vcmcvMjAwMC9zdmciIHZpZXdCb3g9IjAgMCAzMCA0OCI+PGRlZnM+PHN0eWxlPi5jbHMtMXtmaWxsOiM1OTU5NTk7fTwvc3R5bGU+PC9kZWZzPjx0aXRsZT5pcGhvbmU8L3RpdGxlPjxnIGRhdGEtbmFtZT0iTGF5ZXIgMiIgaWQ9IkxheWVyXzIiPjxnIGlkPSJpcGhvbmUiPjxwYXRoIGQ9Ik0yNCwwYTUuNzcxLDUuNzcxLDAsMCwxLDQuMjE5LDEuNzgxQTUuNzY5LDUuNzY5LDAsMCwxLDMwLDZWNDJhNS43MjUsNS43MjUsMCwwLDEtMS43ODEsNC4yNjZBNS44NDQsNS44NDQsMCwwLDEsMjQsNDhINmE1Ljg0Miw1Ljg0MiwwLDAsMS00LjIxOS0xLjczNEE1LjcyNSw1LjcyNSwwLDAsMSwwLDQyVjZBNS43NjksNS43NjksMCwwLDEsMS43ODEsMS43ODEsNS43Nyw1Ljc3LDAsMCwxLDYsMFptMyw2SDNWMzlIMjdaTTE1LDQ1YTIuMjU3LDIuMjU3LDAsMCwwLDEuNTk0LS42MDksMi4xMzcsMi4xMzcsMCwwLDAsLjY1Ni0xLjY0MSwyLjI1LDIuMjUsMCwxLDAtNC41LDAsMi4xMzMsMi4xMzMsMCwwLDAsLjY1NiwxLjY0MUEyLjI1MywyLjI1MywwLDAsMCwxNSw0NVoiIGNsYXNzPSJjbHMtMSIvPjwvZz48L2c+PC9zdmc+" vertex="1" parent="1">
          <mxGeometry x="56" y="204" width="30" height="48" as="geometry" />
        </mxCell>
        <mxCell id="k1EBhxcsPVhUVIul-I8J-9" value="" style="shape=image;verticalLabelPosition=bottom;verticalAlign=top;imageAspect=0;aspect=fixed;image=data:image/svg+xml,PHN2ZyB4bWxucz0iaHR0cDovL3d3dy53My5vcmcvMjAwMC9zdmciIHZpZXdCb3g9IjAgMCAzNiA0OCI+PGRlZnM+PHN0eWxlPi5jbHMtMXtmaWxsOiM1OTU5NTk7fTwvc3R5bGU+PC9kZWZzPjx0aXRsZT5wZXJzb24tcGxhY2Vob2xkZXI8L3RpdGxlPjxnIGRhdGEtbmFtZT0iTGF5ZXIgMiIgaWQ9IkxheWVyXzIiPjxnIGlkPSJwZXJzb24tcGxhY2Vob2xkZXIiPjxwYXRoIGQ9Ik0yNCwyNGExMS43MzMsMTEuNzMzLDAsMCwxLDQuNjQxLjkzOCwxMS45NywxMS45NywwLDAsMSw2LjQyMSw2LjQyMUExMS43MzcsMTEuNzM3LDAsMCwxLDM2LDM2VjQ4SDBWMzZhMTEuNzE5LDExLjcxOSwwLDAsMSwuOTM4LTQuNjQxLDEyLjA0NiwxMi4wNDYsMCwwLDEsMi41NzgtMy44NDMsMTIuMTc4LDEyLjE3OCwwLDAsMSwzLjgtMi41NzhBMTEuNjMxLDExLjYzMSwwLDAsMSwxMiwyNEgyNFptOSwxMmE4Ljk2Myw4Ljk2MywwLDAsMC05LTlIMTJhOC42ODIsOC42ODIsMCwwLDAtNi4zNzUsMi42MjVBOC42ODEsOC42ODEsMCwwLDAsMywzNnY5SDMzWk0zMCwxMmExMS42MzEsMTEuNjMxLDAsMCwxLS45MzgsNC42ODgsMTIuMTc4LDEyLjE3OCwwLDAsMS0yLjU3OCwzLjgsMTIuMDE5LDEyLjAxOSwwLDAsMS0zLjg0MywyLjU3OCwxMi4wNjcsMTIuMDY3LDAsMCwxLTkuMzI5LDAsMTIuMjI0LDEyLjIyNCwwLDAsMS02LjM3NC02LjM3NEExMS42MTQsMTEuNjE0LDAsMCwxLDYsMTJhMTEuNzE5LDExLjcxOSwwLDAsMSwuOTM4LTQuNjQxQTEyLjA0NiwxMi4wNDYsMCwwLDEsOS41MTYsMy41MTZhMTIuMTc4LDEyLjE3OCwwLDAsMSwzLjgtMi41NzgsMTIuMDY3LDEyLjA2NywwLDAsMSw5LjMyOSwwLDExLjk3LDExLjk3LDAsMCwxLDYuNDIxLDYuNDIxQTExLjczNywxMS43MzcsMCwwLDEsMzAsMTJaTTE4LDIxYTguNjgxLDguNjgxLDAsMCwwLDYuMzc1LTIuNjI1QTguNjgyLDguNjgyLDAsMCwwLDI3LDEyYTguNjg1LDguNjg1LDAsMCwwLTIuNjI1LTYuMzc1QTguNjg1LDguNjg1LDAsMCwwLDE4LDNhOC42ODIsOC42ODIsMCwwLDAtNi4zNzUsMi42MjVBOC42ODEsOC42ODEsMCwwLDAsOSwxMmE4LjY3OCw4LjY3OCwwLDAsMCwyLjYyNSw2LjM3NUE4LjY3OCw4LjY3OCwwLDAsMCwxOCwyMVoiIGNsYXNzPSJjbHMtMSIvPjwvZz48L2c+PC9zdmc+" vertex="1" parent="1">
          <mxGeometry x="53" y="34" width="36" height="48" as="geometry" />
        </mxCell>
        <mxCell id="k1EBhxcsPVhUVIul-I8J-15" value="" style="endArrow=block;html=1;strokeColor=#354A5F;bendable=1;rounded=1;endFill=1;endSize=3;exitX=1;exitY=0.5;exitDx=0;exitDy=0;entryX=0;entryY=0.5;entryDx=0;entryDy=0;" edge="1" parent="1" source="k1EBhxcsPVhUVIul-I8J-3" target="k1EBhxcsPVhUVIul-I8J-1">
          <mxGeometry width="50" height="50" relative="1" as="geometry">
            <mxPoint x="350" y="324" as="sourcePoint" />
            <mxPoint x="170" y="184" as="targetPoint" />
            <Array as="points" />
          </mxGeometry>
        </mxCell>
        <mxCell id="k1EBhxcsPVhUVIul-I8J-16" value="" style="endArrow=block;html=1;strokeColor=#354A5F;bendable=1;rounded=1;endFill=1;endSize=3;exitX=1;exitY=0.5;exitDx=0;exitDy=0;entryX=0;entryY=0.5;entryDx=0;entryDy=0;" edge="1" parent="1" source="k1EBhxcsPVhUVIul-I8J-19">
          <mxGeometry width="50" height="50" relative="1" as="geometry">
            <mxPoint x="279" y="265.5" as="sourcePoint" />
            <mxPoint x="414" y="265.5" as="targetPoint" />
            <Array as="points" />
          </mxGeometry>
        </mxCell>
        <mxCell id="k1EBhxcsPVhUVIul-I8J-17" value="" style="shape=image;verticalLabelPosition=bottom;verticalAlign=top;imageAspect=0;aspect=fixed;image=data:image/svg+xml,PHN2ZyB4bWxucz0iaHR0cDovL3d3dy53My5vcmcvMjAwMC9zdmciIGZpbGw9Im5vbmUiIHZpZXdCb3g9IjAgMCA0OSA0OSIgaGVpZ2h0PSI0OSIgd2lkdGg9IjQ5Ij4mI3hhOzxjaXJjbGUgc3Ryb2tlLXdpZHRoPSIwLjg1NzE0MyIgc3Ryb2tlPSIjRDVEQUREIiBmaWxsPSJ1cmwoI3BhaW50MF9saW5lYXJfMjYyMl8yOTA3KSIgcj0iMjMuNTcxNCIgY3k9IjI0LjAzNDkiIGN4PSIyNC41Ii8+JiN4YTs8ZyBjbGlwLXBhdGg9InVybCgjY2xpcDBfMjYyMl8yOTA3KSI+JiN4YTs8cGF0aCBmaWxsPSJ1cmwoI3BhaW50MV9yYWRpYWxfMjYyMl8yOTA3KSIgZD0iTTI2LjA3NjEgMTMuNTQ3OEMyNi4wNzYxIDEyLjgwMjIgMjYuNjgwNSAxMi4xOTc4IDI3LjQyNjEgMTIuMTk3OEgzMS41OTM0QzM0LjIwMjkgMTIuMTk3OCAzNi4zMTg0IDE0LjMxMzIgMzYuMzE4NCAxNi45MjI4VjIwLjUxMTdDMzYuMzE4NCAyMS4yNTczIDM1LjcxNCAyMS44NjE3IDM0Ljk2ODQgMjEuODYxN0MzNC4yMjI4IDIxLjg2MTcgMzMuNjE4NCAyMS4yNTczIDMzLjYxODQgMjAuNTExN1YxNi45MjI4QzMzLjYxODQgMTUuODA0NCAzMi43MTE4IDE0Ljg5NzggMzEuNTkzNCAxNC44OTc4SDI3LjQyNjFDMjYuNjgwNSAxNC44OTc4IDI2LjA3NjEgMTQuMjkzNCAyNi4wNzYxIDEzLjU0NzhaTTE0LjAzMDQgMjUuNDc3OEMxNC43NzYgMjUuNDc3OCAxNS4zODA0IDI2LjA4MjIgMTUuMzgwNCAyNi44Mjc4VjMxLjEzMzlDMTUuMzgwNCAzMi4yNTIzIDE2LjI4NyAzMy4xNTg5IDE3LjQwNTQgMzMuMTU4OUgyMS45ODkyQzIyLjczNDcgMzMuMTU4OSAyMy4zMzkyIDMzLjc2MzMgMjMuMzM5MiAzNC41MDg5QzIzLjMzOTIgMzUuMjU0NSAyMi43MzQ3IDM1Ljg1ODkgMjEuOTg5MiAzNS44NTg5SDE3LjQwNTRDMTQuNzk1OSAzNS44NTg5IDEyLjY4MDQgMzMuNzQzNCAxMi42ODA0IDMxLjEzMzlWMjYuODI3OEMxMi42ODA0IDI2LjA4MjIgMTMuMjg0OCAyNS40Nzc4IDE0LjAzMDQgMjUuNDc3OFoiIGNsaXAtcnVsZT0iZXZlbm9kZCIgZmlsbC1ydWxlPSJldmVub2RkIi8+JiN4YTs8cGF0aCBmaWxsPSJ1cmwoI3BhaW50Ml9yYWRpYWxfMjYyMl8yOTA3KSIgZD0iTTM3LjU3ODEgMzQuNjU2NkMzNy44NTk0IDM0LjkzNzggMzggMzUuMjM2NyAzOCAzNS41NTMxQzM4IDM1LjkwNDYgMzcuODU5NCAzNi4yMjEgMzcuNTc4MSAzNi41MDIzQzM3LjI5NjkgMzYuNzgzNSAzNi45ODA1IDM2LjkyNDIgMzYuNjI4OSAzNi45MjQyQzM2LjMxMjUgMzYuOTI0MiAzNi4wMTM3IDM2Ljc4MzUgMzUuNzMyNCAzNi41MDIzTDMxLjk4ODMgMzIuNzU4MUMzMC44OTg0IDMzLjcwNzQgMjkuNjY4IDM0LjE2NDQgMjguMjk2OSAzNC4xMjkyQzI2LjkyNTggMzQuMDU4OSAyNS43MzA1IDMzLjUxNCAyNC43MTA5IDMyLjQ5NDVMMjMuNDk4IDMxLjI4MTZDMjMuMjE2OCAzMS4wMDAzIDIzLjA3NjIgMzAuNzAxNSAyMy4wNzYyIDMwLjM4NTFDMjMuMDc2MiAzMC4wMzM1IDIzLjIxNjggMjkuNzE3MSAyMy40OTggMjkuNDM1OUwzMC4zNTM1IDIyLjU4MDRDMzAuNjM0OCAyMi4yOTkyIDMwLjk1MTIgMjIuMTU4NSAzMS4zMDI3IDIyLjE1ODVDMzEuNjU0MyAyMi4xNTg1IDMxLjk3MDcgMjIuMjk5MiAzMi4yNTIgMjIuNTgwNEwzMy40NjQ4IDIzLjc5MzNDMzQuNDg0NCAyNC44MTI4IDM1LjAxMTcgMjUuOTkwNiAzNS4wNDY5IDI3LjMyNjVDMzUuMTE3MiAyOC42MjczIDM0LjcxMjkgMjkuODA1IDMzLjgzNCAzMC44NTk3TDM3LjU3ODEgMzQuNjU2NloiIGNsaXAtcnVsZT0iZXZlbm9kZCIgZmlsbC1ydWxlPSJldmVub2RkIi8+JiN4YTs8cGF0aCBmaWxsPSJ1cmwoI3BhaW50M19yYWRpYWxfMjYyMl8yOTA3KSIgZD0iTTIzLjczMjMgMjUuOTM4NkMyMy40NTExIDI2LjIxOTggMjMuMTM0NyAyNi4zNjA1IDIyLjc4MzEgMjYuMzYwNUMyMi40NjY3IDI2LjM2MDUgMjIuMTY3OSAyNi4yMTk4IDIxLjg4NjYgMjUuOTM4NkwxOS40NjA4IDIzLjUxMjhMMTguNDA2MSAyNC41Njc1QzE4LjEyNDkgMjQuODQ4NyAxNy44MDg1IDI0Ljk4OTQgMTcuNDU2OSAyNC45ODk0QzE3LjA3MDIgMjQuOTg5NCAxNi43NTM4IDI0Ljg0ODcgMTYuNTA3NyAyNC41Njc1TDE1LjI5NDggMjMuNDA3M0MxNC4yNzUzIDIyLjM4NzggMTMuNzMwMyAyMS4yMjc2IDEzLjY2IDE5LjkyNjlDMTMuNTg5NyAxOC41OTA5IDEzLjk1ODkgMTcuMzc4IDE0Ljc2NzUgMTYuMjg4MkwxMS40MjE5IDEyLjg1NTJDMTEuMTQwNiAxMi41NzQgMTEgMTIuMjU3NiAxMSAxMS45MDZDMTEgMTEuNTU0NCAxMS4xNDA2IDExLjIzOCAxMS40MjE5IDEwLjk1NjhDMTEuNzAzMSAxMC42NzU1IDEyLjAwMiAxMC41MzQ5IDEyLjMxODQgMTAuNTM0OUMxMi42Njk5IDEwLjUzNDkgMTIuOTg2MyAxMC42NzU1IDEzLjI2NzYgMTAuOTU2OEwxNi42MTMyIDE0LjM4OThDMTcuNzAzIDEzLjUxMDggMTguOTMzNSAxMy4xMDY1IDIwLjMwNDYgMTMuMTc2OUMyMS42NzU3IDEzLjI0NzIgMjIuODcxIDEzLjc5MjEgMjMuODkwNSAxNC44MTE2TDI1LjEwMzQgMTYuMDI0NUMyNS4zNDk1IDE2LjI3MDYgMjUuNDcyNiAxNi41ODcgMjUuNDcyNiAxNi45NzM3QzI1LjQ3MjYgMTcuMzI1MyAyNS4zNDk1IDE3LjYyNDEgMjUuMTAzNCAxNy44NzAyTDIzLjk5NiAxOC45Nzc2TDI2LjQyMTggMjEuMzUwN0MyNi43MDMxIDIxLjYzMTkgMjYuODQzNyAyMS45NDgzIDI2Ljg0MzcgMjIuMjk5OUMyNi44NDM3IDIyLjY1MTUgMjYuNzAzMSAyMi45Njc5IDI2LjQyMTggMjMuMjQ5MUMyNi4xNDA2IDIzLjUzMDQgMjUuODI0MSAyMy42NzEgMjUuNDcyNiAyMy42NzFDMjUuMTIxIDIzLjY3MSAyNC44MDQ2IDIzLjUzMDQgMjQuNTIzNCAyMy4yNDkxTDIyLjE1MDMgMjAuODIzM0wyMS4zMDY1IDIxLjY2NzFMMjIuNTE5NCAyMi44NTM2TDIzLjczMjMgMjQuMDQwMUMyNC4wMTM2IDI0LjMyMTQgMjQuMTU0MiAyNC42Mzc4IDI0LjE1NDIgMjQuOTg5NEMyNC4xNTQyIDI1LjM0MDkgMjQuMDEzNiAyNS42NTczIDIzLjczMjMgMjUuOTM4NloiLz4mI3hhOzwvZz4mI3hhOzxkZWZzPiYjeGE7PGxpbmVhckdyYWRpZW50IGdyYWRpZW50VW5pdHM9InVzZXJTcGFjZU9uVXNlIiB5Mj0iNDQuMjc5MiIgeDI9IjQxLjU2NDUiIHkxPSI2Ljg0Nzc1IiB4MT0iNC44NTI4NyIgaWQ9InBhaW50MF9saW5lYXJfMjYyMl8yOTA3Ij4mI3hhOzxzdG9wIHN0b3AtY29sb3I9IndoaXRlIi8+JiN4YTs8c3RvcCBzdG9wLWNvbG9yPSIjRUFFQ0VFIiBvZmZzZXQ9IjEiLz4mI3hhOzwvbGluZWFyR3JhZGllbnQ+JiN4YTs8cmFkaWFsR3JhZGllbnQgZ3JhZGllbnRUcmFuc2Zvcm09InRyYW5zbGF0ZSgxNi4zNDYgMTUuNjcxOSkgcm90YXRlKDQ1LjM0NjEpIHNjYWxlKDIzLjI4NTYgNDMuOTk1OCkiIGdyYWRpZW50VW5pdHM9InVzZXJTcGFjZU9uVXNlIiByPSIxIiBjeT0iMCIgY3g9IjAiIGlkPSJwYWludDFfcmFkaWFsXzI2MjJfMjkwNyI+JiN4YTs8c3RvcCBzdG9wLWNvbG9yPSIjMDE5NUZGIi8+JiN4YTs8c3RvcCBzdG9wLWNvbG9yPSIjMTE0N0U5IiBvZmZzZXQ9IjEiLz4mI3hhOzwvcmFkaWFsR3JhZGllbnQ+JiN4YTs8cmFkaWFsR3JhZGllbnQgZ3JhZGllbnRUcmFuc2Zvcm09InRyYW5zbGF0ZSgyNS40NTEyIDI0LjM3NDYpIHJvdGF0ZSg0NC42OTQ3KSBzY2FsZSgxNC43MDIxIDE3Ljg0MjEpIiBncmFkaWVudFVuaXRzPSJ1c2VyU3BhY2VPblVzZSIgcj0iMSIgY3k9IjAiIGN4PSIwIiBpZD0icGFpbnQyX3JhZGlhbF8yNjIyXzI5MDciPiYjeGE7PHN0b3Agc3RvcC1jb2xvcj0iIzAwQkJGRiIvPiYjeGE7PHN0b3Agc3RvcC1jb2xvcj0iIzAwOEJGRiIgb2Zmc2V0PSIxIi8+JiN4YTs8L3JhZGlhbEdyYWRpZW50PiYjeGE7PHJhZGlhbEdyYWRpZW50IGdyYWRpZW50VHJhbnNmb3JtPSJ0cmFuc2xhdGUoMTMuNDUzNCAxMi45MTU2KSByb3RhdGUoNDQuOTY3Mikgc2NhbGUoMTUuNTk4NyAxNC4yMTQ1KSIgZ3JhZGllbnRVbml0cz0idXNlclNwYWNlT25Vc2UiIHI9IjEiIGN5PSIwIiBjeD0iMCIgaWQ9InBhaW50M19yYWRpYWxfMjYyMl8yOTA3Ij4mI3hhOzxzdG9wIHN0b3AtY29sb3I9IiMxMzQ4RkYiLz4mI3hhOzxzdG9wIHN0b3AtY29sb3I9IiMwNjIzOEQiIG9mZnNldD0iMSIvPiYjeGE7PC9yYWRpYWxHcmFkaWVudD4mI3hhOzxjbGlwUGF0aCBpZD0iY2xpcDBfMjYyMl8yOTA3Ij4mI3hhOzxyZWN0IHRyYW5zZm9ybT0idHJhbnNsYXRlKDExIDEwLjUzNDkpIiBmaWxsPSJ3aGl0ZSIgaGVpZ2h0PSIyNyIgd2lkdGg9IjI3Ii8+JiN4YTs8L2NsaXBQYXRoPiYjeGE7PC9kZWZzPiYjeGE7PC9zdmc+" vertex="1" parent="1">
          <mxGeometry x="510" y="190.5" width="49" height="49" as="geometry" />
        </mxCell>
        <mxCell id="k1EBhxcsPVhUVIul-I8J-18" value="" style="shape=image;verticalLabelPosition=bottom;verticalAlign=top;imageAspect=0;aspect=fixed;image=data:image/svg+xml,PHN2ZyB4bWxucz0iaHR0cDovL3d3dy53My5vcmcvMjAwMC9zdmciIGZpbGw9Im5vbmUiIHZpZXdCb3g9IjAgMCA0OSA0OSIgaGVpZ2h0PSI0OSIgd2lkdGg9IjQ5Ij4mI3hhOzxjaXJjbGUgc3Ryb2tlLXdpZHRoPSIwLjg1NzE0MyIgc3Ryb2tlPSIjRDVEQUREIiBmaWxsPSJ1cmwoI3BhaW50MF9saW5lYXJfMjYyMl8yOTgyKSIgcj0iMjMuNTcxNCIgY3k9IjI0LjAzNDkiIGN4PSIyNC41Ii8+JiN4YTs8ZyBjbGlwLXBhdGg9InVybCgjY2xpcDBfMjYyMl8yOTgyKSI+JiN4YTs8cGF0aCBmaWxsPSJ1cmwoI3BhaW50MV9yYWRpYWxfMjYyMl8yOTgyKSIgZD0iTTMxLjQxMTcgOS41ODc2NUgyMy40NDI5QzIzLjE0NDYgOS41ODc2NSAyMi44NTg1IDkuNzA2MTUgMjIuNjQ3NiA5LjkxNzA4QzIyLjQzNjYgMTAuMTI4IDIyLjMxODEgMTAuNDE0MSAyMi4zMTgxIDEwLjcxMjRWMTQuNjYwOEMyMi4zMTgxIDE1LjU4MzIgMjEuOTg4NyAxNi4zNzM5IDIxLjMyOTkgMTcuMDMyN0MyMC42NzEgMTcuNjkxNiAxOS44ODA0IDE4LjAyMSAxOC45NTggMTguMDIxSDE1LjAwOTVDMTQuNzExMiAxOC4wMjEgMTQuNDI1MSAxOC4xMzk1IDE0LjIxNDIgMTguMzUwNEMxNC4wMDMzIDE4LjU2MTQgMTMuODg0OCAxOC44NDc1IDEzLjg4NDggMTkuMTQ1OFYzMy44MzQ5QzEzLjg4NDggMzUuMzI2MSAxNS4wOTM2IDM2LjUzNDkgMTYuNTg0OCAzNi41MzQ5SDIzLjYwMUMyMy4wOTQ5IDM2LjAzMDkgMjIuNjMzNCAzNS40ODIxIDIyLjIyMjggMzQuODk1QzIxLjkwMjQgMzQuNDM2NyAyMi4wMTQxIDMzLjgwNTQgMjIuNDcyNCAzMy40ODVDMjIuOTMwNiAzMy4xNjQ1IDIzLjU2MTkgMzMuMjc2MyAyMy44ODIzIDMzLjczNDVDMjQuNTU4MSAzNC43MDEgMjUuNDAwMSAzNS41NDMgMjYuMzY2NiAzNi4yMTg4QzI2LjQ4OTcgMzYuMzA0OSAyNi41ODc4IDM2LjQxMzQgMjYuNjU5MiAzNi41MzQ5SDMxLjQxMTdDMzIuNjY4NSAzNi41MzQ5IDMzLjcyNDcgMzUuNjc2MiAzNC4wMjU3IDM0LjUxMzVDMzMuNjM5NCAzNC41ODQ0IDMzLjI0MDYgMzQuNjE5NyAzMi44MzEgMzQuNjE5N0gzMS40NDdDMzAuNjY2OSAzNC42MTk3IDMwLjAwMDEgMzQuMjkzMSAyOS41MDE1IDMzLjc5NDVDMjkuMDkzMyAzMy4zODYzIDI4LjgzMTYgMzIuODgwMSAyOC43NDE1IDMyLjMyMTJMMjcuNjU1OSAzMi4zMzMxQzI2Ljk1MTUgMzIuMzMzMSAyNi4yNCAzMi4wOTc1IDI1LjY4MDMgMzEuNTM3OUMyNS4xMjA3IDMwLjk3ODIgMjQuODg1MiAzMC4yNjY4IDI0Ljg4NTIgMjkuNTYyM0MyNC44ODUyIDI5LjAzMjMgMjUuMDE4NiAyOC40OTgyIDI1LjMyMyAyOC4wMjc4QzI1LjAxODYgMjcuNTU3NSAyNC44ODUyIDI3LjAyMzQgMjQuODg1MiAyNi40OTMzQzI0Ljg4NTIgMjUuNzg4OSAyNS4xMjA3IDI1LjA3NzUgMjUuNjgwMyAyNC41MTc4QzI2LjI1MzkgMjMuOTQ0MyAyNi45Nzg2IDIzLjc1MjggMjcuNjI1OCAyMy43NTI4TDI4Ljc0NDYgMjMuNzUyOEMyOC44MzE1IDIzLjIxMzkgMjkuMDcwMyAyMi42OTI1IDI5LjUwMTUgMjIuMjYxMkMzMC4wMzE3IDIxLjczMTEgMzAuNzI4NyAyMS40Mzg4IDMxLjQ5NzkgMjEuNDY1MkwzMi44MTIzIDIxLjQzNkgzMi44MzFDMzMuMjcwNyAyMS40MzYgMzMuNjk4NSAyMS40NzUxIDM0LjExMTcgMjEuNTU0N1YxOC4xNDAxQzM0LjAyOTcgMTguMTQ2MSAzMy45NDU3IDE4LjE0MjEgMzMuODYxMSAxOC4xMjcxQzMzLjI5MTEgMTguMDI2NCAzMi43MDM4IDE3Ljk3MzcgMzIuMTAzNSAxNy45NzM3QzMxLjUwMzEgMTcuOTczNyAzMC45MTU4IDE4LjAyNjQgMzAuMzQ1OSAxOC4xMjcxQzI5Ljc5NTIgMTguMjI0NSAyOS4yNjk5IDE3Ljg1NyAyOS4xNzI2IDE3LjMwNjNDMjkuMDc1MyAxNi43NTU2IDI5LjQ0MjggMTYuMjMwNCAyOS45OTM0IDE2LjEzM0MzMC42NzkyIDE2LjAxMTggMzEuMzg0NCAxNS45NDg3IDMyLjEwMzUgMTUuOTQ4N0MzMi43ODcgMTUuOTQ4NyAzMy40NTggMTYuMDA1OCAzNC4xMTE3IDE2LjExNTVWMTIuMjg3NkMzNC4xMTE3IDEwLjc5NjUgMzIuOTAyOSA5LjU4NzY1IDMxLjQxMTcgOS41ODc2NVpNMjYuNjE2MSAxOC4zNjY2QzI2LjkzNjYgMTguODI0OCAyNi44MjQ5IDE5LjQ1NjEgMjYuMzY2NiAxOS43NzY1QzI1LjQwMDEgMjAuNDUyNCAyNC41NTgxIDIxLjI5NDMgMjMuODgyMyAyMi4yNjA4QzIzLjU2MTkgMjIuNzE5MSAyMi45MzA2IDIyLjgzMDggMjIuNDcyNCAyMi41MTAzQzIyLjAxNDEgMjIuMTg5OSAyMS45MDI0IDIxLjU1ODYgMjIuMjIyOCAyMS4xMDA0QzIzLjAzNDUgMTkuOTM5NiAyNC4wNDU0IDE4LjkyODcgMjUuMjA2MiAxOC4xMTdDMjUuNjY0NCAxNy43OTY2IDI2LjI5NTcgMTcuOTA4MyAyNi42MTYxIDE4LjM2NjZaTTIxLjQxMjEgMjUuMDY2OEMyMS45NjI4IDI1LjE2NDEgMjIuMzMwMyAyNS42ODk0IDIyLjIzMjkgMjYuMjQwMUMyMi4xMzIyIDI2LjgxIDIyLjA3OTUgMjcuMzk3MyAyMi4wNzk1IDI3Ljk5NzdDMjIuMDc5NSAyOC41OTggMjIuMTMyMiAyOS4xODUzIDIyLjIzMjkgMjkuNzU1M0MyMi4zMzAzIDMwLjMwNTkgMjEuOTYyOCAzMC44MzEyIDIxLjQxMjEgMzAuOTI4NUMyMC44NjE1IDMxLjAyNTggMjAuMzM2MiAzMC42NTgzIDIwLjIzODggMzAuMTA3N0MyMC4xMTc2IDI5LjQyMTkgMjAuMDU0NSAyOC43MTY3IDIwLjA1NDUgMjcuOTk3N0MyMC4wNTQ1IDI3LjI3ODYgMjAuMTE3NiAyNi41NzM0IDIwLjIzODggMjUuODg3NkMyMC4zMzYyIDI1LjMzNyAyMC44NjE0IDI0Ljk2OTUgMjEuNDEyMSAyNS4wNjY4WiIgY2xpcC1ydWxlPSJldmVub2RkIiBmaWxsLXJ1bGU9ImV2ZW5vZGQiLz4mI3hhOzxwYXRoIGZpbGw9InVybCgjcGFpbnQyX3JhZGlhbF8yNjIyXzI5ODIpIiBkPSJNMjYuODczNiAyNS43MTExQzI2LjY3MyAyNS45MTE2IDI2LjU3MjggMjYuMTcyNCAyNi41NzI4IDI2LjQ5MzNDMjYuNTcyOCAyNi44MTQzIDI2LjY3MyAyNy4wNzUxIDI2Ljg3MzYgMjcuMjc1NkMyNy4wNzQyIDI3LjQ3NjIgMjcuMzM1IDI3LjU3NjUgMjcuNjU1OSAyNy41NzY1TDMwLjM5MzkgMjcuNTQ2NEwzMC4zOTM5IDI4LjUwOTNMMjcuNjU1OSAyOC40NzkyQzI3LjMzNSAyOC40NzkyIDI3LjA3NDIgMjguNTc5NSAyNi44NzM2IDI4Ljc4QzI2LjY3MyAyOC45ODA2IDI2LjU3MjggMjkuMjQxNCAyNi41NzI4IDI5LjU2MjNDMjYuNTcyOCAyOS44ODMzIDI2LjY3MyAzMC4xNDQgMjYuODczNiAzMC4zNDQ2QzI3LjA3NDIgMzAuNTQ1MiAyNy4zMzUgMzAuNjQ1NSAyNy42NTU5IDMwLjY0NTVMMzAuMzkzOSAzMC42MTU0VjMxLjg3OTFDMzAuMzkzOSAzMi4xNTk5IDMwLjQ5NDIgMzIuNDAwNyAzMC42OTQ4IDMyLjYwMTJDMzAuOTE1NSAzMi44MjE5IDMxLjE2NjIgMzIuOTMyMiAzMS40NDcgMzIuOTMyMkgzMi44MzExQzMzLjk5NDUgMzIuOTMyMiAzNC45ODc0IDMyLjU2MTEgMzUuODA5OCAzMS44MTg5QzM2LjYzMjIgMzEuMDc2OCAzNy4xMDM2IDMwLjE0NCAzNy4yMjQgMjkuMDIwOEwzOS45Mjc4IDI5LjAyMDdDNDAuMjQ4NyAyOS4wMjA3IDQwLjUwOTUgMjguOTIwNCA0MC43MTAxIDI4LjcxOThDNDAuODkwNiAyOC41MzkzIDQwLjk4MDkgMjguMjg4NiA0MC45ODA5IDI3Ljk2NzZDNDAuOTgwOSAyNy42NDY3IDQwLjg4MDYgMjcuMzg1OSA0MC42OCAyNy4xODUzQzQwLjQ3OTQgMjYuOTg0OCA0MC4yMTg3IDI2Ljg4NDUgMzkuODk3NyAyNi44ODQ1TDM3LjE5MzkgMjYuODg0NUMzNy4wMzM0IDI1LjgwMTMgMzYuNTUyIDI0Ljg5ODcgMzUuNzQ5NiAyNC4xNzY2QzM0Ljk2NzMgMjMuNDc0NSAzMy45OTQ1IDIzLjEyMzUgMzIuODMxMSAyMy4xMjM1TDMxLjQ3NzEgMjMuMTUzNkMzMS4xNzYyIDIzLjEzMzUgMzAuOTE1NSAyMy4yMzM4IDMwLjY5NDggMjMuNDU0NEMzMC40OTQyIDIzLjY1NSAzMC4zOTM5IDIzLjkxNTggMzAuMzkzOSAyNC4yMzY3TDMwLjM5MzkgMjUuNDQwM0wyNy42MjU4IDI1LjQ0MDNDMjcuMzA0OSAyNS40NDAzIDI3LjA1NDIgMjUuNTMwNSAyNi44NzM2IDI1LjcxMTFaIi8+JiN4YTs8cGF0aCBmaWxsPSJ1cmwoI3BhaW50M19yYWRpYWxfMjYyMl8yOTgyKSIgZD0iTTIxLjA2NyAxNC40OTEyVjExLjQ5NzZMMTUuNzk0NyAxNi43Njk5SDE4Ljc4ODNDMTkuNDEzOCAxNi43Njk5IDE5Ljk1IDE2LjU0NjUgMjAuMzk2OCAxNi4wOTk3QzIwLjg0MzYgMTUuNjUyOSAyMS4wNjcgMTUuMTE2NyAyMS4wNjcgMTQuNDkxMloiLz4mI3hhOzwvZz4mI3hhOzxkZWZzPiYjeGE7PGxpbmVhckdyYWRpZW50IGdyYWRpZW50VW5pdHM9InVzZXJTcGFjZU9uVXNlIiB5Mj0iNDQuMjc5MiIgeDI9IjQxLjU2NDUiIHkxPSI2Ljg0Nzc1IiB4MT0iNC44NTI4NyIgaWQ9InBhaW50MF9saW5lYXJfMjYyMl8yOTgyIj4mI3hhOzxzdG9wIHN0b3AtY29sb3I9IndoaXRlIi8+JiN4YTs8c3RvcCBzdG9wLWNvbG9yPSIjRUFFQ0VFIiBvZmZzZXQ9IjEiLz4mI3hhOzwvbGluZWFyR3JhZGllbnQ+JiN4YTs8cmFkaWFsR3JhZGllbnQgZ3JhZGllbnRUcmFuc2Zvcm09InRyYW5zbGF0ZSgxNy4wMjE0IDEzLjU0NDMpIHJvdGF0ZSg1My40MTI2KSBzY2FsZSgyMy40OTQ4IDQyLjQ5MzkpIiBncmFkaWVudFVuaXRzPSJ1c2VyU3BhY2VPblVzZSIgcj0iMSIgY3k9IjAiIGN4PSIwIiBpZD0icGFpbnQxX3JhZGlhbF8yNjIyXzI5ODIiPiYjeGE7PHN0b3Agc3RvcC1jb2xvcj0iIzAxOTVGRiIvPiYjeGE7PHN0b3Agc3RvcC1jb2xvcj0iIzExNDdFOSIgb2Zmc2V0PSIxIi8+JiN4YTs8L3JhZGlhbEdyYWRpZW50PiYjeGE7PHJhZGlhbEdyYWRpZW50IGdyYWRpZW50VHJhbnNmb3JtPSJ0cmFuc2xhdGUoMjguODAzOCAyNC41OTkpIHJvdGF0ZSgzNC4yNDYxKSBzY2FsZSgxMi4xNDEzIDEwLjI5MzUpIiBncmFkaWVudFVuaXRzPSJ1c2VyU3BhY2VPblVzZSIgcj0iMSIgY3k9IjAiIGN4PSIwIiBpZD0icGFpbnQyX3JhZGlhbF8yNjIyXzI5ODIiPiYjeGE7PHN0b3Agc3RvcC1jb2xvcj0iIzEzNDhGRiIvPiYjeGE7PHN0b3Agc3RvcC1jb2xvcj0iIzA2MjM4RCIgb2Zmc2V0PSIxIi8+JiN4YTs8L3JhZGlhbEdyYWRpZW50PiYjeGE7PHJhZGlhbEdyYWRpZW50IGdyYWRpZW50VHJhbnNmb3JtPSJ0cmFuc2xhdGUoMTYuNjExMSAxMi4yOTA4KSByb3RhdGUoNDUpIHNjYWxlKDUuMTkzNzcgNC43MzI4OSkiIGdyYWRpZW50VW5pdHM9InVzZXJTcGFjZU9uVXNlIiByPSIxIiBjeT0iMCIgY3g9IjAiIGlkPSJwYWludDNfcmFkaWFsXzI2MjJfMjk4MiI+JiN4YTs8c3RvcCBzdG9wLWNvbG9yPSIjMTM0OEZGIi8+JiN4YTs8c3RvcCBzdG9wLWNvbG9yPSIjMDYyMzhEIiBvZmZzZXQ9IjEiLz4mI3hhOzwvcmFkaWFsR3JhZGllbnQ+JiN4YTs8Y2xpcFBhdGggaWQ9ImNsaXAwXzI2MjJfMjk4MiI+JiN4YTs8cmVjdCB0cmFuc2Zvcm09InRyYW5zbGF0ZSgxNCA5LjUzNDkxKSIgZmlsbD0id2hpdGUiIGhlaWdodD0iMjciIHdpZHRoPSIyNyIvPiYjeGE7PC9jbGlwUGF0aD4mI3hhOzwvZGVmcz4mI3hhOzwvc3ZnPg==" vertex="1" parent="1">
          <mxGeometry x="430" y="241" width="49" height="49" as="geometry" />
        </mxCell>
        <mxCell id="k1EBhxcsPVhUVIul-I8J-19" value="" style="shape=image;verticalLabelPosition=bottom;verticalAlign=top;imageAspect=0;aspect=fixed;image=data:image/svg+xml,PHN2ZyB4bWxucz0iaHR0cDovL3d3dy53My5vcmcvMjAwMC9zdmciIGZpbGw9Im5vbmUiIHZpZXdCb3g9IjAgMCA0OSA0OSIgaGVpZ2h0PSI0OSIgd2lkdGg9IjQ5Ij4mI3hhOzxjaXJjbGUgc3Ryb2tlLXdpZHRoPSIwLjg1NzE0MyIgc3Ryb2tlPSIjRDVEQUREIiBmaWxsPSJ1cmwoI3BhaW50MF9saW5lYXJfMjYyMl8yOTM5KSIgcj0iMjMuNTcxNCIgY3k9IjI0LjAzNDkiIGN4PSIyNC41Ii8+JiN4YTs8cGF0aCBmaWxsPSJ1cmwoI3BhaW50MV9yYWRpYWxfMjYyMl8yOTM5KSIgZD0iTTE2LjEwODggMjQuNzMxNUMxNi4xMDg4IDIzLjk4NTkgMTYuNzEzMiAyMy4zODE1IDE3LjQ1ODggMjMuMzgxNUgyMS40MzYxQzIyLjE4MTcgMjMuMzgxNSAyMi43ODYxIDIzLjk4NTkgMjIuNzg2MSAyNC43MzE1VjI5LjU2NDZDMjIuNzg2MSAzMC4zMTAyIDIyLjE4MTcgMzAuOTE0NiAyMS40MzYxIDMwLjkxNDZIMTcuNDU4OEMxNi43MTMyIDMwLjkxNDYgMTYuMTA4OCAzMC4zMTAyIDE2LjEwODggMjkuNTY0NlYyNC43MzE1Wk0yNC40NzM2IDI0LjczMTVDMjQuNDczNiAyMy45ODU5IDI1LjA3OCAyMy4zODE1IDI1LjgyMzYgMjMuMzgxNUgyNi41NTM1QzI3LjI5OTEgMjMuMzgxNSAyNy45MDM1IDIzLjk4NTkgMjcuOTAzNSAyNC43MzE1VjI0Ljg5OTRDMjcuOTAzNSAyNS42NDUgMjcuMjk5MSAyNi4yNDk0IDI2LjU1MzUgMjYuMjQ5NEgyNS44MjM2QzI1LjA3OCAyNi4yNDk0IDI0LjQ3MzYgMjUuNjQ1IDI0LjQ3MzYgMjQuODk5NFYyNC43MzE1Wk0yNS44MjM2IDI3LjkzNjlDMjUuMDc4IDI3LjkzNjkgMjQuNDczNiAyOC41NDE0IDI0LjQ3MzYgMjkuMjg2OVYyOS41NjQ2QzI0LjQ3MzYgMzAuMzEwMiAyNS4wNzggMzAuOTE0NiAyNS44MjM2IDMwLjkxNDZIMjYuNTUzNUMyNy4yOTkxIDMwLjkxNDYgMjcuOTAzNSAzMC4zMTAyIDI3LjkwMzUgMjkuNTY0NlYyOS4yODY5QzI3LjkwMzUgMjguNTQxNCAyNy4yOTkxIDI3LjkzNjkgMjYuNTUzNSAyNy45MzY5SDI1LjgyMzZaTTI5LjU2MjUgMjQuNzMxNUMyOS41NjI1IDIzLjk4NTkgMzAuMTY2OSAyMy4zODE1IDMwLjkxMjUgMjMuMzgxNUgzMS42NDI0QzMyLjM4NzkgMjMuMzgxNSAzMi45OTI0IDIzLjk4NTkgMzIuOTkyNCAyNC43MzE1VjI0Ljg5OTRDMzIuOTkyNCAyNS42NDUgMzIuMzg3OSAyNi4yNDk0IDMxLjY0MjQgMjYuMjQ5NEgzMC45MTI1QzMwLjE2NjkgMjYuMjQ5NCAyOS41NjI1IDI1LjY0NSAyOS41NjI1IDI0Ljg5OTRWMjQuNzMxNVpNMzAuOTEyNSAyNy45MzY5QzMwLjE2NjkgMjcuOTM2OSAyOS41NjI1IDI4LjU0MTQgMjkuNTYyNSAyOS4yODY5VjI5LjU2NDZDMjkuNTYyNSAzMC4zMTAyIDMwLjE2NjkgMzAuOTE0NiAzMC45MTI1IDMwLjkxNDZIMzEuNjQyNEMzMi4zODc5IDMwLjkxNDYgMzIuOTkyNCAzMC4zMTAyIDMyLjk5MjQgMjkuNTY0NlYyOS4yODY5QzMyLjk5MjQgMjguNTQxNCAzMi4zODc5IDI3LjkzNjkgMzEuNjQyNCAyNy45MzY5SDMwLjkxMjVaIiBjbGlwLXJ1bGU9ImV2ZW5vZGQiIGZpbGwtcnVsZT0iZXZlbm9kZCIvPiYjeGE7PHBhdGggZmlsbD0idXJsKCNwYWludDJfcmFkaWFsXzI2MjJfMjkzOSkiIGQ9Ik0zMy45MjE5IDE1LjAxMjJMMTUuMDYwNyAxNS4wMTIzQzE0LjMxNTIgMTUuMDEyMyAxMy43MTA3IDE1LjYxNjcgMTMuNzEwNyAxNi4zNjIzVjE4LjM2MTZIMjguODE1MUMyOS41NjA3IDE4LjM2MTYgMzAuMTY1MSAxOC45NjYgMzAuMTY1MSAxOS43MTE2QzMwLjE2NTEgMjAuNDU3MSAyOS41NjA3IDIxLjA2MTYgMjguODE1MSAyMS4wNjE2SDEzLjcxMDdWMzEuODk2OUMxMy43MTA3IDMyLjY0MjUgMTQuMzE1MiAzMy4yNDY5IDE1LjA2MDcgMzMuMjQ2OUgyMS42Mzg1QzIyLjM4NDEgMzMuMjQ2OSAyMi45ODg1IDMzLjg1MTMgMjIuOTg4NSAzNC41OTY5QzIyLjk4ODUgMzUuMzQyNSAyMi4zODQxIDM1Ljk0NjkgMjEuNjM4NSAzNS45NDY5SDE1LjA2MDdDMTIuODI0IDM1Ljk0NjkgMTEuMDEwNyAzNC4xMzM3IDExLjAxMDcgMzEuODk2OVYxNi4zNjIzQzExLjAxMDcgMTQuMTI1NSAxMi44MjQgMTIuMzEyMyAxNS4wNjA3IDEyLjMxMjNMMzMuOTIxOSAxMi4zMTIyQzM2LjE1ODYgMTIuMzEyMSAzNy45NzE5IDE0LjEyNTQgMzcuOTcxOSAxNi4zNjIyVjIxLjcxMDlDMzcuOTcxOSAyMi40NTY1IDM3LjM2NzUgMjMuMDYwOSAzNi42MjE5IDIzLjA2MDlDMzUuODc2MyAyMy4wNjA5IDM1LjI3MTkgMjIuNDU2NSAzNS4yNzE5IDIxLjcxMDlWMTYuMzYyMkMzNS4yNzE5IDE1LjYxNjYgMzQuNjY3NSAxNS4wMTIyIDMzLjkyMTkgMTUuMDEyMloiIGNsaXAtcnVsZT0iZXZlbm9kZCIgZmlsbC1ydWxlPSJldmVub2RkIi8+JiN4YTs8ZGVmcz4mI3hhOzxsaW5lYXJHcmFkaWVudCBncmFkaWVudFVuaXRzPSJ1c2VyU3BhY2VPblVzZSIgeTI9IjQ0LjI3OTIiIHgyPSI0MS41NjQ1IiB5MT0iNi44NDc3NSIgeDE9IjQuODUyODciIGlkPSJwYWludDBfbGluZWFyXzI2MjJfMjkzOSI+JiN4YTs8c3RvcCBzdG9wLWNvbG9yPSJ3aGl0ZSIvPiYjeGE7PHN0b3Agc3RvcC1jb2xvcj0iI0VBRUNFRSIgb2Zmc2V0PSIxIi8+JiN4YTs8L2xpbmVhckdyYWRpZW50PiYjeGE7PHJhZGlhbEdyYWRpZW50IGdyYWRpZW50VHJhbnNmb3JtPSJ0cmFuc2xhdGUoMTguNzIzMiAyNC41MTQ3KSByb3RhdGUoMjQuMDQ1NCkgc2NhbGUoMTIuODc4MiA4LjczMzU0KSIgZ3JhZGllbnRVbml0cz0idXNlclNwYWNlT25Vc2UiIHI9IjEiIGN5PSIwIiBjeD0iMCIgaWQ9InBhaW50MV9yYWRpYWxfMjYyMl8yOTM5Ij4mI3hhOzxzdG9wIHN0b3AtY29sb3I9IiMxMzQ4RkYiLz4mI3hhOzxzdG9wIHN0b3AtY29sb3I9IiMwNjIzOEQiIG9mZnNldD0iMSIvPiYjeGE7PC9yYWRpYWxHcmFkaWVudD4mI3hhOzxyYWRpYWxHcmFkaWVudCBncmFkaWVudFRyYW5zZm9ybT0idHJhbnNsYXRlKDE1LjE5MTcgMTUuNzgyNCkgcm90YXRlKDQxLjU1NDEpIHNjYWxlKDI0Ljk0NDEgNDYuNzkyNCkiIGdyYWRpZW50VW5pdHM9InVzZXJTcGFjZU9uVXNlIiByPSIxIiBjeT0iMCIgY3g9IjAiIGlkPSJwYWludDJfcmFkaWFsXzI2MjJfMjkzOSI+JiN4YTs8c3RvcCBzdG9wLWNvbG9yPSIjMDE5NUZGIi8+JiN4YTs8c3RvcCBzdG9wLWNvbG9yPSIjMTE0N0U5IiBvZmZzZXQ9IjEiLz4mI3hhOzwvcmFkaWFsR3JhZGllbnQ+JiN4YTs8L2RlZnM+JiN4YTs8L3N2Zz4=" vertex="1" parent="1">
          <mxGeometry x="220" y="241" width="49" height="49" as="geometry" />
        </mxCell>
        <mxCell id="k1EBhxcsPVhUVIul-I8J-20" value="" style="shape=image;verticalLabelPosition=bottom;verticalAlign=top;imageAspect=0;aspect=fixed;image=data:image/svg+xml,PHN2ZyB4bWxucz0iaHR0cDovL3d3dy53My5vcmcvMjAwMC9zdmciIGZpbGw9Im5vbmUiIHZpZXdCb3g9IjAgMCA0OSA0OSIgaGVpZ2h0PSI0OSIgd2lkdGg9IjQ5Ij4mI3hhOzxnIGNsaXAtcGF0aD0idXJsKCNjbGlwMF8yNjIyXzM2NTQpIj4mI3hhOzxjaXJjbGUgc3Ryb2tlLXdpZHRoPSIwLjg1NzE0MyIgc3Ryb2tlPSIjRDVEQUREIiBmaWxsPSJ1cmwoI3BhaW50MF9saW5lYXJfMjYyMl8zNjU0KSIgcj0iMjMuNTcxNCIgY3k9IjI0LjAzNDkiIGN4PSIyNC41Ii8+JiN4YTs8ZyBjbGlwLXBhdGg9InVybCgjY2xpcDFfMjYyMl8zNjU0KSI+JiN4YTs8cGF0aCBmaWxsPSJ1cmwoI3BhaW50MV9yYWRpYWxfMjYyMl8zNjU0KSIgZD0iTTIzLjU5OTUgMTMuOTg0OUMyMC41MTU1IDEzLjk4NDkgMTguMjA3MSAxNi45NzU4IDE4LjQyMDQgMTkuODA4OUMxOC40NTE2IDIwLjIyNCAxOC4yODk2IDIwLjYzMDMgMTcuOTgxMyAyMC45MUMxNy42NzMgMjEuMTg5NyAxNy4yNTMgMjEuMzExNiAxNi44NDI4IDIxLjI0MDJDMTUuNTU2NyAyMS4wMTY2IDE0LjYyMjQgMjEuMzYxMyAxNC4wMDU2IDIxLjkyOUMxMy4zNjc3IDIyLjUxNjEgMTIuOTUgMjMuNDU0MSAxMi45NSAyNC42MDQ0QzEyLjk1IDI1Ljc0MDUgMTMuMjg4MSAyNi41NzY3IDEzLjgyMDYgMjcuMTIzMUMxNC4zNDU4IDI3LjY2MjEgMTUuMjA3NCAyOC4wNzA0IDE2LjU2MDQgMjguMDcwNEgxOS43NTg0QzIwLjUwNCAyOC4wNzA0IDIxLjEwODQgMjguNjc0OCAyMS4xMDg0IDI5LjQyMDRDMjEuMTA4NCAzMC4xNjYgMjAuNTA0IDMwLjc3MDQgMTkuNzU4NCAzMC43NzA0SDE2LjU2MDRDMTQuNjQyOSAzMC43NzA0IDEzLjAyNDIgMzAuMTc0NSAxMS44ODY5IDI5LjAwNzRDMTAuNzU2OCAyNy44NDc4IDEwLjI1IDI2LjI3NiAxMC4yNSAyNC42MDQ0QzEwLjI1IDIyLjgwODIgMTAuOTA4MyAyMS4xMTAyIDEyLjE3NyAxOS45NDI0QzEzLjEzMTkgMTkuMDYzNiAxNC4zNjc5IDE4LjU0NTMgMTUuNzcxNSAxOC40NzkxQzE2LjI0NDIgMTQuODE1MiAxOS4yOTc4IDExLjI4NDkgMjMuNTk5NSAxMS4yODQ5QzI2Ljk4OSAxMS4yODQ5IDI5LjUzMSAxMy4xNzg2IDMwLjkwODIgMTYuMDA3OEMzMy40MTY0IDE2LjAyODMgMzUuNzU0OSAxNy40OTUgMzYuNTQ2NCAyMC4zMzE0QzM2Ljc0NjggMjEuMDQ5NiAzNi4zMjcxIDIxLjc5NDIgMzUuNjA5IDIxLjk5NDZDMzQuODkwOSAyMi4xOTUxIDM0LjE0NjIgMjEuNzc1NCAzMy45NDU4IDIxLjA1NzJDMzMuNDU1OSAxOS4zMDE3IDMxLjk2MTcgMTguNDkxIDMwLjI1MDggMTguNzU0M0MyOS42MTc5IDE4Ljg1MTcgMjkuMDAzNyAxOC40OTEgMjguNzgwMyAxNy44OTA5QzI3Ljg1OCAxNS40MTM0IDI2LjAzMjYgMTMuOTg0OSAyMy41OTk1IDEzLjk4NDlaIiBjbGlwLXJ1bGU9ImV2ZW5vZGQiIGZpbGwtcnVsZT0iZXZlbm9kZCIvPiYjeGE7PHBhdGggZmlsbD0idXJsKCNwYWludDJfcmFkaWFsXzI2MjJfMzY1NCkiIGQ9Ik0yNS40OTk1IDI0LjA3MjdIMjYuMTUwMlYyNC43ODQ5SDI2Ljg2MDlWMjIuNjU4MkgyNi4xNTAyVjIzLjM2MDVIMjUuNDk5NVYyMi42NTgySDI0Ljc4ODlWMjQuNzg0OUgyNS40OTk1VjI0LjA3MjdaTTI3Ljc5NiAyNC43ODQ5SDI4LjUwNzJWMjMuMzYzNkgyOS4xMzMyVjIyLjY1ODJIMjcuMTdWMjMuMzYzNkgyNy43OTZWMjQuNzg0OVpNMzAuNjI5NiAyNC40ODY5TDMwLjE0MDIgMjMuNzMwNVYyNC43ODQ5SDI5LjQ0NDhWMjIuNjU4MkgzMC4xODZMMzAuNjQyMiAyMy40MDUxTDMxLjA5NzQgMjIuNjU4MkgzMS44MzkxVjI0Ljc4NDlIMzEuMTMxMVYyMy43MzA1TDMwLjY0MjIgMjQuNDg2OUgzMC42Mjk2Wk0zMy44NTg5IDI0LjA4MTZIMzIuODU5MVYyMi42NTgySDMyLjE0NzlWMjQuNzg0OUgzMy44NTg5VjI0LjA4MTZaTTI0Ljc2NTcgMzcuMDE4MUwyMy43NDkxIDI1LjYxNzJIMzQuOTI0TDMzLjkwNTkgMzcuMDE2NkwyOS4zMjk4IDM4LjI4NDlMMjQuNzY1NyAzNy4wMTgxWk0yNi42MDI2IDI5LjAxNjNMMjYuODczMyAzMi4wNTI4SDI5LjMzMjJIMjkuMzM5NUgzMC42ODk0TDMwLjU2MTYgMzMuNDgxNUwyOS4zMzIyIDMzLjgxMzJMMjguMTAzOCAzMy40ODI1TDI4LjAyNDkgMzIuNjAzN0gyNy40Mjg5SDI2LjkxODVMMjcuMDczIDM0LjMzMzVMMjkuMzMxMSAzNC45NjAxTDI5LjMzNTkgMzQuOTU4NUwzMS41OTE5IDM0LjMzMzVMMzEuNjA4MiAzNC4xNDc1TDMxLjg2NzMgMzEuMjQ3TDMxLjg5NDEgMzAuOTUxMUgzMS41OTcxSDI5LjMzOTVIMjkuMzMyMkgyNy44ODE0TDI3Ljc4MDUgMjkuODIyNkgyOS4zMzU5SDI5LjMzOTVIMzEuOTk0NUgzMS45OTgyTDMyLjAyMDMgMjkuNTc1TDMyLjA3MDcgMjkuMDE2M0wzMi4wOTcgMjguNzIwOUgyOS4zMzk1SDI5LjMzNTlIMjYuNTc2M0wyNi42MDI2IDI5LjAxNjNaIiBjbGlwLXJ1bGU9ImV2ZW5vZGQiIGZpbGwtcnVsZT0iZXZlbm9kZCIvPiYjeGE7PC9nPiYjeGE7PC9nPiYjeGE7PGRlZnM+JiN4YTs8bGluZWFyR3JhZGllbnQgZ3JhZGllbnRVbml0cz0idXNlclNwYWNlT25Vc2UiIHkyPSI0NC4yNzkyIiB4Mj0iNDEuNTY0NSIgeTE9IjYuODQ3NzUiIHgxPSI0Ljg1Mjg3IiBpZD0icGFpbnQwX2xpbmVhcl8yNjIyXzM2NTQiPiYjeGE7PHN0b3Agc3RvcC1jb2xvcj0id2hpdGUiLz4mI3hhOzxzdG9wIHN0b3AtY29sb3I9IiNFQUVDRUUiIG9mZnNldD0iMSIvPiYjeGE7PC9saW5lYXJHcmFkaWVudD4mI3hhOzxyYWRpYWxHcmFkaWVudCBncmFkaWVudFRyYW5zZm9ybT0idHJhbnNsYXRlKDE0LjMzNTYgMTQuMTQ2KSByb3RhdGUoMzYuNzkwNykgc2NhbGUoMjIuNzc3NSA0MS4yODQpIiBncmFkaWVudFVuaXRzPSJ1c2VyU3BhY2VPblVzZSIgcj0iMSIgY3k9IjAiIGN4PSIwIiBpZD0icGFpbnQxX3JhZGlhbF8yNjIyXzM2NTQiPiYjeGE7PHN0b3Agc3RvcC1jb2xvcj0iIzAxOTVGRiIvPiYjeGE7PHN0b3Agc3RvcC1jb2xvcj0iIzExNDdFOSIgb2Zmc2V0PSIxIi8+JiN4YTs8L3JhZGlhbEdyYWRpZW50PiYjeGE7PHJhZGlhbEdyYWRpZW50IGdyYWRpZW50VHJhbnNmb3JtPSJ0cmFuc2xhdGUoMjUuNDc5NiAyNS4wMDkpIHJvdGF0ZSg1NC40MzA5KSBzY2FsZSgxMy4zODIxIDExLjUzOTcpIiBncmFkaWVudFVuaXRzPSJ1c2VyU3BhY2VPblVzZSIgcj0iMSIgY3k9IjAiIGN4PSIwIiBpZD0icGFpbnQyX3JhZGlhbF8yNjIyXzM2NTQiPiYjeGE7PHN0b3Agc3RvcC1jb2xvcj0iIzEzNDhGRiIvPiYjeGE7PHN0b3Agc3RvcC1jb2xvcj0iIzA2MjM4RCIgb2Zmc2V0PSIxIi8+JiN4YTs8L3JhZGlhbEdyYWRpZW50PiYjeGE7PGNsaXBQYXRoIGlkPSJjbGlwMF8yNjIyXzM2NTQiPiYjeGE7PHJlY3QgdHJhbnNmb3JtPSJ0cmFuc2xhdGUoMC41IDAuMDM0OTEyMSkiIGZpbGw9IndoaXRlIiBoZWlnaHQ9IjQ4IiB3aWR0aD0iNDgiLz4mI3hhOzwvY2xpcFBhdGg+JiN4YTs8Y2xpcFBhdGggaWQ9ImNsaXAxXzI2MjJfMzY1NCI+JiN4YTs8cmVjdCB0cmFuc2Zvcm09InRyYW5zbGF0ZSgxMC4yNSAxMS4yODQ5KSIgZmlsbD0id2hpdGUiIGhlaWdodD0iMjciIHdpZHRoPSIyNyIvPiYjeGE7PC9jbGlwUGF0aD4mI3hhOzwvZGVmcz4mI3hhOzwvc3ZnPg==" vertex="1" parent="1">
          <mxGeometry x="350" y="190" width="49" height="49" as="geometry" />
        </mxCell>
        <mxCell id="k1EBhxcsPVhUVIul-I8J-21" value="" style="endArrow=block;html=1;strokeColor=#354A5F;bendable=1;rounded=1;endFill=1;endSize=3;exitX=0;exitY=0.5;exitDx=0;exitDy=0;entryX=1;entryY=0.5;entryDx=0;entryDy=0;" edge="1" parent="1" source="k1EBhxcsPVhUVIul-I8J-17" target="k1EBhxcsPVhUVIul-I8J-20">
          <mxGeometry width="50" height="50" relative="1" as="geometry">
            <mxPoint x="279" y="276" as="sourcePoint" />
            <mxPoint x="424" y="275.5" as="targetPoint" />
            <Array as="points" />
          </mxGeometry>
        </mxCell>
        <mxCell id="k1EBhxcsPVhUVIul-I8J-22" value="" style="shape=image;verticalLabelPosition=bottom;verticalAlign=top;imageAspect=0;aspect=fixed;image=data:image/svg+xml,PHN2ZyB4bWxucz0iaHR0cDovL3d3dy53My5vcmcvMjAwMC9zdmciIGZpbGw9Im5vbmUiIHZpZXdCb3g9IjAgMCA0OSA0OSIgaGVpZ2h0PSI0OSIgd2lkdGg9IjQ5Ij4mI3hhOzxnIGNsaXAtcGF0aD0idXJsKCNjbGlwMF8yNjIyXzQxNTYpIj4mI3hhOzxjaXJjbGUgc3Ryb2tlLXdpZHRoPSIwLjg1NzE0MyIgc3Ryb2tlPSIjRDVEQUREIiBmaWxsPSJ1cmwoI3BhaW50MF9saW5lYXJfMjYyMl80MTU2KSIgcj0iMjMuNTcxNCIgY3k9IjI0LjAzNDkiIGN4PSIyNC41Ii8+JiN4YTs8ZyBjbGlwLXBhdGg9InVybCgjY2xpcDFfMjYyMl80MTU2KSI+JiN4YTs8cGF0aCBzdHJva2UtbGluZWNhcD0icm91bmQiIHN0cm9rZS13aWR0aD0iMi4zNjI1IiBzdHJva2U9InVybCgjcGFpbnQxX3JhZGlhbF8yNjIyXzQxNTYpIiBkPSJNMTguNzcxOCAxNS44MDI0QzE3Ljc5MzggMTYuNDg0MiAxNi45NDMgMTcuMzM1OCAxNi4yNjIxIDE4LjMxNDVNMzIuNzM4IDE4LjMxNDVDMzIuMDU3MSAxNy4zMzU4IDMxLjIwNjMgMTYuNDg0MiAzMC4yMjgyIDE1LjgwMjRNMTYuMjYyMSAyOS43NTUzQzE2Ljk0MyAzMC43MzQgMTcuNzkzOCAzMS41ODU2IDE4Ljc3MTggMzIuMjY3NE0zMC4yMjgzIDMyLjI2NzRDMzEuMjA2MyAzMS41ODU2IDMyLjA1NzEgMzAuNzM0IDMyLjczOCAyOS43NTUzIi8+JiN4YTs8cGF0aCBmaWxsPSJ1cmwoI3BhaW50Ml9yYWRpYWxfMjYyMl80MTU2KSIgZD0iTTExLjA4NDQgMjQuMDYyNkMxMS4wODQ0IDIyLjIwMzcgMTIuNjAwMyAyMC42OTY1IDE0LjQ3IDIwLjY5NjVDMTYuMzM5NyAyMC42OTY1IDE3Ljg1NTYgMjIuMjAzNyAxNy44NTU2IDI0LjA2MjZDMTcuODU1NiAyNS45MjE2IDE2LjMzOTcgMjcuNDI4OCAxNC40NyAyNy40Mjg4QzEyLjYwMDMgMjcuNDI4OCAxMS4wODQ0IDI1LjkyMTYgMTEuMDg0NCAyNC4wNjI2Wk0xNC40NyAyMi45NEMxMy44NDcgMjIuOTQgMTMuMzQxNyAyMy40NDI0IDEzLjM0MTcgMjQuMDYxOEMxMy4zNDE3IDI0LjY4MTIgMTMuODQ3IDI1LjE4MzYgMTQuNDcgMjUuMTgzNkMxNS4wOTI5IDI1LjE4MzYgMTUuNTk4MiAyNC42ODEyIDE1LjU5ODIgMjQuMDYxOEMxNS41OTgyIDIzLjQ0MjQgMTUuMDkyOSAyMi45NCAxNC40NyAyMi45NFoiLz4mI3hhOzxwYXRoIGZpbGw9InVybCgjcGFpbnQzX3JhZGlhbF8yNjIyXzQxNTYpIiBkPSJNMzEuMTQ0MyAyNC4wNjI2QzMxLjE0NDMgMjIuMjAzNyAzMi42NjAyIDIwLjY5NjUgMzQuNTI5OSAyMC42OTY1QzM2LjM5OTYgMjAuNjk2NSAzNy45MTU2IDIyLjIwMzcgMzcuOTE1NiAyNC4wNjI2QzM3LjkxNTYgMjUuOTIxNiAzNi4zOTk2IDI3LjQyODggMzQuNTI5OSAyNy40Mjg4QzMyLjY2MDIgMjcuNDI4OCAzMS4xNDQzIDI1LjkyMTYgMzEuMTQ0MyAyNC4wNjI2Wk0zNC41Mjk5IDIyLjk0QzMzLjkwNyAyMi45NCAzMy40MDE3IDIzLjQ0MjQgMzMuNDAxNyAyNC4wNjE4QzMzLjQwMTcgMjQuNjgxMiAzMy45MDcgMjUuMTgzNiAzNC41Mjk5IDI1LjE4MzZDMzUuMTUyOSAyNS4xODM2IDM1LjY1ODIgMjQuNjgxMiAzNS42NTgyIDI0LjA2MThDMzUuNjU4MiAyMy40NDI0IDM1LjE1MjkgMjIuOTQgMzQuNTI5OSAyMi45NFoiLz4mI3hhOzxwYXRoIGZpbGw9InVybCgjcGFpbnQ0X3JhZGlhbF8yNjIyXzQxNTYpIiBkPSJNMjQuNTEwNiAxMC42NDA0QzI2LjM4MDMgMTAuNjQwNCAyNy44OTYyIDEyLjE0NzYgMjcuODk2MiAxNC4wMDY1QzI3Ljg5NjIgMTUuODY1NSAyNi4zODAzIDE3LjM3MjcgMjQuNTEwNiAxNy4zNzI3QzIyLjY0MDkgMTcuMzcyNyAyMS4xMjUgMTUuODY1NSAyMS4xMjUgMTQuMDA2NUMyMS4xMjUgMTIuMTQ3NiAyMi42NDA5IDEwLjY0MDQgMjQuNTEwNiAxMC42NDA0Wk0yNS42Mzk3IDE0LjAwNjVDMjUuNjM5NyAxMy4zODcyIDI1LjEzNDQgMTIuODg0OCAyNC41MTE1IDEyLjg4NDhDMjMuODg4NSAxMi44ODQ4IDIzLjM4MzIgMTMuMzg3MiAyMy4zODMyIDE0LjAwNjVDMjMuMzgzMiAxNC42MjU5IDIzLjg4ODUgMTUuMTI4MyAyNC41MTE1IDE1LjEyODNDMjUuMTM0NCAxNS4xMjgzIDI1LjYzOTcgMTQuNjI1OSAyNS42Mzk3IDE0LjAwNjVaIi8+JiN4YTs8cGF0aCBmaWxsPSJ1cmwoI3BhaW50NV9yYWRpYWxfMjYyMl80MTU2KSIgZD0iTTI0LjUxMDYgMzAuNjk3MkMyNi4zODAzIDMwLjY5NzIgMjcuODk2MiAzMi4yMDQ0IDI3Ljg5NjIgMzQuMDYzM0MyNy44OTYyIDM1LjkyMjMgMjYuMzgwMyAzNy40Mjk1IDI0LjUxMDYgMzcuNDI5NUMyMi42NDA5IDM3LjQyOTUgMjEuMTI1IDM1LjkyMjMgMjEuMTI1IDM0LjA2MzNDMjEuMTI1IDMyLjIwNDQgMjIuNjQwOSAzMC42OTcyIDI0LjUxMDYgMzAuNjk3MlpNMjUuNjM5NyAzNC4wNjMzQzI1LjYzOTcgMzMuNDQ0IDI1LjEzNDQgMzIuOTQxNiAyNC41MTE1IDMyLjk0MTZDMjMuODg4NSAzMi45NDE2IDIzLjM4MzIgMzMuNDQ0IDIzLjM4MzIgMzQuMDYzM0MyMy4zODMyIDM0LjY4MjcgMjMuODg4NSAzNS4xODUxIDI0LjUxMTUgMzUuMTg1MUMyNS4xMzQ0IDM1LjE4NTEgMjUuNjM5NyAzNC42ODI3IDI1LjYzOTcgMzQuMDYzM1oiLz4mI3hhOzxwYXRoIGZpbGw9InVybCgjcGFpbnQ2X3JhZGlhbF8yNjIyXzQxNTYpIiBkPSJNMjcuNzMwMiAyMC40OTU0QzI4LjAwMDIgMjAuMjE1OCAyOC4zMDM4IDIwLjA3NTkgMjguNjQxMyAyMC4wNzU5QzI4Ljk3ODcgMjAuMDc1OSAyOS4yODI0IDIwLjIxNTggMjkuNTUyMyAyMC40OTU0QzI5Ljc4ODUgMjAuNzQwMSAyOS45MDY2IDIxLjAzNzMgMjkuOTA2NiAyMS4zODY4QzI5LjkwNjYgMjEuNzM2NCAyOS43ODg1IDIyLjA1MSAyOS41NTIzIDIyLjMzMDdMMjQuNDQwNCAyNy42MjY3QzI0LjIwNDIgMjcuODcxNCAyMy45MDA1IDI3Ljk5MzggMjMuNTI5MyAyNy45OTM4QzIzLjE1ODIgMjcuOTkzOCAyMi44NTQ1IDI3Ljg3MTQgMjIuNjE4MyAyNy42MjY3TDIwLjA4NzYgMjUuMDA0OUMxOS44MTc3IDI0LjcyNTMgMTkuNjgyNyAyNC40MTA2IDE5LjY4MjcgMjQuMDYxMUMxOS42ODI3IDIzLjcxMTUgMTkuODE3NyAyMy4zOTY5IDIwLjA4NzYgMjMuMTE3MkMyMC4zNTc2IDIyLjgzNzYgMjAuNjYxMyAyMi42OTc3IDIwLjk5ODcgMjIuNjk3N0MyMS4zMzYxIDIyLjY5NzcgMjEuNjIyOSAyMi44Mzc2IDIxLjg1OTEgMjMuMTE3MkwyMy41MjkzIDI0Ljg0NzZMMjcuNzMwMiAyMC40OTU0WiIvPiYjeGE7PC9nPiYjeGE7PC9nPiYjeGE7PGRlZnM+JiN4YTs8bGluZWFyR3JhZGllbnQgZ3JhZGllbnRVbml0cz0idXNlclNwYWNlT25Vc2UiIHkyPSI0NC4yNzkyIiB4Mj0iNDEuNTY0NSIgeTE9IjYuODQ3NzUiIHgxPSI0Ljg1Mjg3IiBpZD0icGFpbnQwX2xpbmVhcl8yNjIyXzQxNTYiPiYjeGE7PHN0b3Agc3RvcC1jb2xvcj0id2hpdGUiLz4mI3hhOzxzdG9wIHN0b3AtY29sb3I9IiNFQUVDRUUiIG9mZnNldD0iMSIvPiYjeGE7PC9saW5lYXJHcmFkaWVudD4mI3hhOzxyYWRpYWxHcmFkaWVudCBncmFkaWVudFRyYW5zZm9ybT0idHJhbnNsYXRlKDE4Ljg4NDEgMTguMjczNSkgcm90YXRlKDQ0Ljk4MSkgc2NhbGUoMTYuMzEyIDE5Ljc5NjkpIiBncmFkaWVudFVuaXRzPSJ1c2VyU3BhY2VPblVzZSIgcj0iMSIgY3k9IjAiIGN4PSIwIiBpZD0icGFpbnQxX3JhZGlhbF8yNjIyXzQxNTYiPiYjeGE7PHN0b3Agc3RvcC1jb2xvcj0iIzAwQkJGRiIvPiYjeGE7PHN0b3Agc3RvcC1jb2xvcj0iIzAwOEJGRiIgb2Zmc2V0PSIxIi8+JiN4YTs8L3JhZGlhbEdyYWRpZW50PiYjeGE7PHJhZGlhbEdyYWRpZW50IGdyYWRpZW50VHJhbnNmb3JtPSJ0cmFuc2xhdGUoMTIuMTM0NCAyMS42ODUpIHJvdGF0ZSg0NS4xNTI2KSBzY2FsZSg2LjY0NzYzIDEyLjU2MDgpIiBncmFkaWVudFVuaXRzPSJ1c2VyU3BhY2VPblVzZSIgcj0iMSIgY3k9IjAiIGN4PSIwIiBpZD0icGFpbnQyX3JhZGlhbF8yNjIyXzQxNTYiPiYjeGE7PHN0b3Agc3RvcC1jb2xvcj0iIzAxOTVGRiIvPiYjeGE7PHN0b3Agc3RvcC1jb2xvcj0iIzExNDdFOSIgb2Zmc2V0PSIxIi8+JiN4YTs8L3JhZGlhbEdyYWRpZW50PiYjeGE7PHJhZGlhbEdyYWRpZW50IGdyYWRpZW50VHJhbnNmb3JtPSJ0cmFuc2xhdGUoMzIuMTk0MyAyMS42ODUpIHJvdGF0ZSg0NS4xNTI2KSBzY2FsZSg2LjY0NzYzIDEyLjU2MDgpIiBncmFkaWVudFVuaXRzPSJ1c2VyU3BhY2VPblVzZSIgcj0iMSIgY3k9IjAiIGN4PSIwIiBpZD0icGFpbnQzX3JhZGlhbF8yNjIyXzQxNTYiPiYjeGE7PHN0b3Agc3RvcC1jb2xvcj0iIzAxOTVGRiIvPiYjeGE7PHN0b3Agc3RvcC1jb2xvcj0iIzExNDdFOSIgb2Zmc2V0PSIxIi8+JiN4YTs8L3JhZGlhbEdyYWRpZW50PiYjeGE7PHJhZGlhbEdyYWRpZW50IGdyYWRpZW50VHJhbnNmb3JtPSJ0cmFuc2xhdGUoMjYuOTAyIDExLjY4NDQpIHJvdGF0ZSgxMzUuNDg0KSBzY2FsZSg2LjY0ODA2IDEyLjU2KSIgZ3JhZGllbnRVbml0cz0idXNlclNwYWNlT25Vc2UiIHI9IjEiIGN5PSIwIiBjeD0iMCIgaWQ9InBhaW50NF9yYWRpYWxfMjYyMl80MTU2Ij4mI3hhOzxzdG9wIHN0b3AtY29sb3I9IiMwMTk1RkYiLz4mI3hhOzxzdG9wIHN0b3AtY29sb3I9IiMxMTQ3RTkiIG9mZnNldD0iMSIvPiYjeGE7PC9yYWRpYWxHcmFkaWVudD4mI3hhOzxyYWRpYWxHcmFkaWVudCBncmFkaWVudFRyYW5zZm9ybT0idHJhbnNsYXRlKDI2LjkwMiAzMS43NDEyKSByb3RhdGUoMTM1LjQ4NCkgc2NhbGUoNi42NDgwNiAxMi41NikiIGdyYWRpZW50VW5pdHM9InVzZXJTcGFjZU9uVXNlIiByPSIxIiBjeT0iMCIgY3g9IjAiIGlkPSJwYWludDVfcmFkaWFsXzI2MjJfNDE1NiI+JiN4YTs8c3RvcCBzdG9wLWNvbG9yPSIjMDE5NUZGIi8+JiN4YTs8c3RvcCBzdG9wLWNvbG9yPSIjMTE0N0U5IiBvZmZzZXQ9IjEiLz4mI3hhOzwvcmFkaWFsR3JhZGllbnQ+JiN4YTs8cmFkaWFsR3JhZGllbnQgZ3JhZGllbnRUcmFuc2Zvcm09InRyYW5zbGF0ZSgyMS4yNjU5IDIxLjI2Nykgcm90YXRlKDM3Ljc1NTkpIHNjYWxlKDkuMDA3NjIgNy45NDcyOCkiIGdyYWRpZW50VW5pdHM9InVzZXJTcGFjZU9uVXNlIiByPSIxIiBjeT0iMCIgY3g9IjAiIGlkPSJwYWludDZfcmFkaWFsXzI2MjJfNDE1NiI+JiN4YTs8c3RvcCBzdG9wLWNvbG9yPSIjMTM0OEZGIi8+JiN4YTs8c3RvcCBzdG9wLWNvbG9yPSIjMDYyMzhEIiBvZmZzZXQ9IjEiLz4mI3hhOzwvcmFkaWFsR3JhZGllbnQ+JiN4YTs8Y2xpcFBhdGggaWQ9ImNsaXAwXzI2MjJfNDE1NiI+JiN4YTs8cmVjdCB0cmFuc2Zvcm09InRyYW5zbGF0ZSgwLjUgMC4wMzQ5MTIxKSIgZmlsbD0id2hpdGUiIGhlaWdodD0iNDgiIHdpZHRoPSI0OCIvPiYjeGE7PC9jbGlwUGF0aD4mI3hhOzxjbGlwUGF0aCBpZD0iY2xpcDFfMjYyMl80MTU2Ij4mI3hhOzxyZWN0IHRyYW5zZm9ybT0idHJhbnNsYXRlKDExIDEwLjUzNDkpIiBmaWxsPSJ3aGl0ZSIgaGVpZ2h0PSIyNyIgd2lkdGg9IjI3Ii8+JiN4YTs8L2NsaXBQYXRoPiYjeGE7PC9kZWZzPiYjeGE7PC9zdmc+" vertex="1" parent="1">
          <mxGeometry x="510" y="119" width="49" height="49" as="geometry" />
        </mxCell>
        <mxCell id="k1EBhxcsPVhUVIul-I8J-26" style="edgeStyle=orthogonalEdgeStyle;rounded=1;orthogonalLoop=1;jettySize=auto;html=1;fontSize=18;strokeColor=#354A5F;exitX=0;exitY=0.5;exitDx=0;exitDy=0;entryX=1;entryY=0.25;entryDx=0;entryDy=0;" edge="1" parent="1" source="k1EBhxcsPVhUVIul-I8J-20" target="k1EBhxcsPVhUVIul-I8J-19">
          <mxGeometry relative="1" as="geometry">
            <mxPoint x="339.5" y="238.9999999999999" as="targetPoint" />
            <mxPoint x="300" y="179" as="sourcePoint" />
            <Array as="points" />
          </mxGeometry>
        </mxCell>
        <mxCell id="k1EBhxcsPVhUVIul-I8J-27" style="edgeStyle=orthogonalEdgeStyle;rounded=1;orthogonalLoop=1;jettySize=auto;html=1;fontSize=18;strokeColor=#354A5F;exitX=0;exitY=0.5;exitDx=0;exitDy=0;entryX=0.5;entryY=0;entryDx=0;entryDy=0;" edge="1" parent="1" source="k1EBhxcsPVhUVIul-I8J-22" target="k1EBhxcsPVhUVIul-I8J-20">
          <mxGeometry relative="1" as="geometry">
            <mxPoint x="414" y="190" as="targetPoint" />
            <mxPoint x="495" y="152" as="sourcePoint" />
            <Array as="points" />
          </mxGeometry>
        </mxCell>
        <mxCell id="k1EBhxcsPVhUVIul-I8J-28" style="edgeStyle=orthogonalEdgeStyle;rounded=1;orthogonalLoop=1;jettySize=auto;html=1;fontSize=18;strokeColor=#354A5F;exitX=1;exitY=0.25;exitDx=0;exitDy=0;entryX=0;entryY=0.25;entryDx=0;entryDy=0;" edge="1" parent="1" source="k1EBhxcsPVhUVIul-I8J-17" target="k1EBhxcsPVhUVIul-I8J-4">
          <mxGeometry relative="1" as="geometry">
            <mxPoint x="385" y="200" as="targetPoint" />
            <mxPoint x="520" y="154" as="sourcePoint" />
            <Array as="points" />
          </mxGeometry>
        </mxCell>
        <mxCell id="k1EBhxcsPVhUVIul-I8J-29" style="edgeStyle=orthogonalEdgeStyle;rounded=1;orthogonalLoop=1;jettySize=auto;html=1;fontSize=18;strokeColor=#354A5F;exitX=1;exitY=0.5;exitDx=0;exitDy=0;entryX=0;entryY=0.75;entryDx=0;entryDy=0;" edge="1" parent="1" source="k1EBhxcsPVhUVIul-I8J-18" target="k1EBhxcsPVhUVIul-I8J-17">
          <mxGeometry relative="1" as="geometry">
            <mxPoint x="720" y="133" as="targetPoint" />
            <mxPoint x="569" y="213" as="sourcePoint" />
            <Array as="points" />
          </mxGeometry>
        </mxCell>
        <mxCell id="k1EBhxcsPVhUVIul-I8J-30" style="edgeStyle=orthogonalEdgeStyle;rounded=1;orthogonalLoop=1;jettySize=auto;html=1;fontSize=18;strokeColor=#354A5F;exitX=1;exitY=0.75;exitDx=0;exitDy=0;entryX=0;entryY=0.75;entryDx=0;entryDy=0;" edge="1" parent="1" source="k1EBhxcsPVhUVIul-I8J-17" target="k1EBhxcsPVhUVIul-I8J-4">
          <mxGeometry relative="1" as="geometry">
            <mxPoint x="720" y="133" as="targetPoint" />
            <mxPoint x="569" y="213" as="sourcePoint" />
            <Array as="points" />
          </mxGeometry>
        </mxCell>
        <mxCell id="k1EBhxcsPVhUVIul-I8J-31" value="" style="shape=image;verticalLabelPosition=bottom;verticalAlign=top;imageAspect=0;aspect=fixed;image=data:image/svg+xml,PHN2ZyB4bWxucz0iaHR0cDovL3d3dy53My5vcmcvMjAwMC9zdmciIGZpbGw9Im5vbmUiIHZpZXdCb3g9IjAgMCA0OSA0OSIgaGVpZ2h0PSI0OSIgd2lkdGg9IjQ5Ij4mI3hhOzxjaXJjbGUgc3Ryb2tlLXdpZHRoPSIwLjg1NzE0MyIgc3Ryb2tlPSIjRDVEQUREIiBmaWxsPSJ1cmwoI3BhaW50MF9saW5lYXJfMjYyMl8yMDQ3MSkiIHI9IjIzLjU3MTQiIGN5PSIyNC4wMzQ5IiBjeD0iMjQuNSIvPiYjeGE7PGcgY2xpcC1wYXRoPSJ1cmwoI2NsaXAwXzI2MjJfMjA0NzEpIj4mI3hhOzxwYXRoIGZpbGw9InVybCgjcGFpbnQxX3JhZGlhbF8yNjIyXzIwNDcxKSIgZD0iTTI0LjMwODggMTEuMjM3QzIwLjAyNjQgMTEuMjM3IDE2Ljk4MzcgMTQuNzIyOSAxNi40NzY4IDE4LjM2MjNDMTUuMDk5MiAxOC40NDQzIDEzLjg4MjkgMTguOTYyIDEyLjkzODEgMTkuODMxNkMxMS42NjAxIDIxLjAwNzkgMTEgMjIuNzE1NCAxMSAyNC41MTYxQzExIDI2LjE4OTYgMTEuNTA3NiAyNy43NzEzIDEyLjY0NzMgMjguOTQwOEMxMy43OTQ2IDMwLjExODEgMTUuNDIzNCAzMC43MTQ1IDE3LjM0MTMgMzAuNzE0NUgxOC4xODQxQzE4LjE5NjEgMzAuNjk2MiAxOC4yMDgyIDMwLjY3NzkgMTguMjIwNCAzMC42NTk2TDE4LjIzMjUgMzAuNjQxNUwxOC4yNDUxIDMwLjYyMzdDMTguNjIyIDMwLjA5MTYgMTkuMDY3MSAyOS42MjI1IDE5LjU3ODEgMjkuMjIwMUMxOS42MDk0IDI5LjE5NDQgMTkuNjQwOSAyOS4xNjkgMTkuNjcyNyAyOS4xNDRDMTkuMzk4MSAyOC41MDYyIDE5LjI2MjEgMjcuODA4MSAxOS4yNjIxIDI3LjA2NjRDMTkuMjYyMSAyNi4zNjI2IDE5LjM5NjggMjUuNjgwNiAxOS42NzAzIDI1LjAzNDFDMTkuOTM0NiAyNC40MDk1IDIwLjMwMzcgMjMuODUwNSAyMC43ODA5IDIzLjM3MzRDMjEuMjY4MSAyMi44ODYyIDIxLjgzMzMgMjIuNTA1MSAyMi40Njc3IDIyLjIzNjdDMjMuMTE0MiAyMS45NjMyIDIzLjc5NjIgMjEuODI4NiAyNC41IDIxLjgyODZDMjUuMjAzOCAyMS44Mjg2IDI1Ljg4NTkgMjEuOTYzMiAyNi41MzIzIDIyLjIzNjdDMjcuMTYxOCAyMi41MDMgMjcuNzIgMjIuODgyNyAyOC4xOTMzIDIzLjM3MzFDMjguNjgzOCAyMy44NDY0IDI5LjA2MzQgMjQuNDA0NyAyOS4zMjk3IDI1LjAzNDFDMjkuNjAzMiAyNS42ODA2IDI5LjczNzkgMjYuMzYyNiAyOS43Mzc5IDI3LjA2NjRDMjkuNzM3OSAyNy43NzAzIDI5LjYwMzIgMjguNDUyMyAyOS4zMjk3IDI5LjA5ODhMMjkuMzI1NCAyOS4xMDg5TDI5LjMyMSAyOS4xMTlDMjkuODY4NiAyOS41Mzc3IDMwLjM0OTEgMzAuMDQzOSAzMC43NTk4IDMwLjYzMDdDMzAuNzgxNCAzMC42NjE2IDMwLjgwMjggMzAuNjkyNSAzMC44MjM4IDMwLjcyMzZDMzQuNTU1NSAzMC42MjEzIDM3LjkxNTYgMjcuODE0IDM3LjkxNTYgMjMuMzU5QzM3LjkxNTYgMTkuMzc1IDM1LjA2ODMgMTYuMzEzNCAzMS42NDA0IDE1Ljk4OTVDMzAuMjY2MyAxMy4xNDgxIDI3LjcxNTYgMTEuMjM3IDI0LjMwODggMTEuMjM3WiIgY2xpcC1ydWxlPSJldmVub2RkIiBmaWxsLXJ1bGU9ImV2ZW5vZGQiLz4mI3hhOzxwYXRoIGZpbGw9InVybCgjcGFpbnQyX3JhZGlhbF8yNjIyXzIwNDcxKSIgZD0iTTI3LjA4NTcgMjkuODA3NkMyOC4wNTcgMzAuMTg5MiAyOC44NDYzIDMwLjgxMzcgMjkuNDUzNCAzMS42ODFDMzAuMDYwNSAzMi41NDgzIDMwLjM2NCAzMy41MjgzIDMwLjM2NCAzNC42MjExVjM2LjEwNDJDMzAuMzY0IDM2LjMxMjMgMzAuMjg2IDM2LjQ4NTggMzAuMTI5OSAzNi42MjQ1QzI5Ljk5MTEgMzYuNzYzMyAyOS44MjYzIDM2LjgzMjcgMjkuNjM1NSAzNi44MzI3SDI4LjE1MjRDMjcuOTQ0MyAzNi44MzI3IDI3Ljc2MjEgMzYuNzYzMyAyNy42MDYgMzYuNjI0NUMyNy40NjczIDM2LjQ4NTggMjcuMzk3OSAzNi4zMTIzIDI3LjM5NzkgMzYuMTA0MkMyNy4zOTc5IDM1Ljg5NiAyNy40NjczIDM1LjcyMjYgMjcuNjA2IDM1LjU4MzhDMjcuNzYyMSAzNS40Mjc3IDI3Ljk0NDMgMzUuMzQ5NiAyOC4xNTI0IDM1LjM0OTZIMjguODgxVjM0LjYyMTFDMjguODgxIDM0LjExODEgMjguNzg1NiAzMy42NDExIDI4LjU5NDcgMzMuMTkwMUMyOC40MDM5IDMyLjczOTEgMjguMTM1MSAzMi4zNDg4IDI3Ljc4ODIgMzIuMDE5MkMyNy40NTg2IDMxLjY3MjMgMjcuMDY4MyAzMS40MDM0IDI2LjYxNzMgMzEuMjEyNkMyNi4xODM3IDMxLjAyMTggMjUuNzA2NyAzMC45MjY0IDI1LjE4NjMgMzAuOTI2NEgyMy43MjkyQzIzLjIwODkgMzAuOTI2NCAyMi43MjMyIDMxLjAyMTggMjIuMjcyMiAzMS4yMTI2QzIxLjgzODYgMzEuNDAzNCAyMS40NDgzIDMxLjY3MjMgMjEuMTAxNCAzMi4wMTkyQzIwLjc3MTggMzIuMzQ4OCAyMC41MTE2IDMyLjczOTEgMjAuMzIwOCAzMy4xOTAxQzIwLjEzIDMzLjY0MTEgMjAuMDM0NiAzNC4xMTgxIDIwLjAzNDYgMzQuNjIxMVYzNS4zNDk2SDIwLjc2MzFDMjAuOTcxMyAzNS4zNDk2IDIxLjE0NDcgMzUuNDI3NyAyMS4yODM1IDM1LjU4MzhDMjEuNDIyMyAzNS43MjI2IDIxLjQ5MTYgMzUuODk2IDIxLjQ5MTYgMzYuMTA0MkMyMS40OTE2IDM2LjMxMjMgMjEuNDIyMyAzNi40ODU4IDIxLjI4MzUgMzYuNjI0NUMyMS4xNDQ3IDM2Ljc2MzMgMjAuOTcxMyAzNi44MzI3IDIwLjc2MzEgMzYuODMyN0gxOS4yOEMxOS4wODkyIDM2LjgzMjcgMTguOTE1OCAzNi43NjMzIDE4Ljc1OTcgMzYuNjI0NUMxOC42MjA5IDM2LjQ4NTggMTguNTUxNSAzNi4zMTIzIDE4LjU1MTUgMzYuMTA0MlYzNC42MjExQzE4LjU1MTUgMzQuMDY2IDE4LjYyOTYgMzMuNTQ1NyAxOC43ODU3IDMzLjA2QzE4Ljk1OTEgMzIuNTU2OSAxOS4xODQ2IDMyLjA5NzMgMTkuNDYyMiAzMS42ODFDMTkuNzU3MSAzMS4yNjQ3IDIwLjEwNCAzMC45MDA0IDIwLjUwMjkgMzAuNTg4MkMyMC45MDE5IDMwLjI1ODYgMjEuMzQ0MiAyOS45OTg0IDIxLjgyOTkgMjkuODA3NkMyMS4xMTg3IDI5LjEzMTEgMjAuNzYzMSAyOC4yNzI1IDIwLjc2MzEgMjcuMjMxOEMyMC43NjMxIDI2LjcyODcgMjAuODU4NSAyNi4yNTE3IDIxLjA0OTMgMjUuODAwN0MyMS4yNDAxIDI1LjM0OTcgMjEuNTAwMyAyNC45NTk0IDIxLjgyOTkgMjQuNjI5OUMyMi4xNzY4IDI0LjI4MyAyMi41NzU4IDI0LjAxNDEgMjMuMDI2NyAyMy44MjMzQzIzLjQ3NzcgMjMuNjMyNSAyMy45NTQ3IDIzLjUzNzEgMjQuNDU3OCAyMy41MzcxQzI0Ljk2MDggMjMuNTM3MSAyNS40Mzc4IDIzLjYzMjUgMjUuODg4OCAyMy44MjMzQzI2LjMzOTggMjQuMDE0MSAyNi43MzAxIDI0LjI4MyAyNy4wNTk2IDI0LjYyOTlDMjcuNDA2NiAyNC45NTk0IDI3LjY3NTQgMjUuMzQ5NyAyNy44NjYyIDI1LjgwMDdDMjguMDU3IDI2LjI1MTcgMjguMTUyNCAyNi43Mjg3IDI4LjE1MjQgMjcuMjMxOEMyOC4xNTI0IDI3LjczNDggMjguMDU3IDI4LjIxMTggMjcuODY2MiAyOC42NjI4QzI3LjY3NTQgMjkuMDk2NCAyNy40MTUyIDI5LjQ3OCAyNy4wODU3IDI5LjgwNzZaTTI0LjQ1NzggMjUuMDIwMkMyMy44NTA3IDI1LjAyMDIgMjMuMzMwMyAyNS4yMzcgMjIuODk2NiAyNS42NzA2QzIyLjQ2MyAyNi4xMDQzIDIyLjI0NjIgMjYuNjI0NyAyMi4yNDYyIDI3LjIzMThDMjIuMjQ2MiAyNy44Mzg5IDIyLjQ2MyAyOC4zNTkyIDIyLjg5NjYgMjguNzkyOUMyMy4zMzAzIDI5LjIyNjUgMjMuODUwNyAyOS40NDM0IDI0LjQ1NzggMjkuNDQzNEMyNS4wNjQ5IDI5LjQ0MzQgMjUuNTg1MiAyOS4yMjY1IDI2LjAxODkgMjguNzkyOUMyNi40NTI1IDI4LjM1OTIgMjYuNjY5NCAyNy44Mzg5IDI2LjY2OTQgMjcuMjMxOEMyNi42Njk0IDI2LjYyNDcgMjYuNDUyNSAyNi4xMDQzIDI2LjAxODkgMjUuNjcwNkMyNS41ODUyIDI1LjIzNyAyNS4wNjQ5IDI1LjAyMDIgMjQuNDU3OCAyNS4wMjAyWiIvPiYjeGE7PC9nPiYjeGE7PGRlZnM+JiN4YTs8bGluZWFyR3JhZGllbnQgZ3JhZGllbnRVbml0cz0idXNlclNwYWNlT25Vc2UiIHkyPSI0NC4yNzkyIiB4Mj0iNDEuNTY0NSIgeTE9IjYuODQ3NzUiIHgxPSI0Ljg1Mjg3IiBpZD0icGFpbnQwX2xpbmVhcl8yNjIyXzIwNDcxIj4mI3hhOzxzdG9wIHN0b3AtY29sb3I9IndoaXRlIi8+JiN4YTs8c3RvcCBzdG9wLWNvbG9yPSIjRUFFQ0VFIiBvZmZzZXQ9IjEiLz4mI3hhOzwvbGluZWFyR3JhZGllbnQ+JiN4YTs8cmFkaWFsR3JhZGllbnQgZ3JhZGllbnRUcmFuc2Zvcm09InRyYW5zbGF0ZSgxNS4xNzM5IDE0Ljk5NTIpIHJvdGF0ZSg0My44Nzc5KSBzY2FsZSgyNS44NTI0IDQ4LjgxMTcpIiBncmFkaWVudFVuaXRzPSJ1c2VyU3BhY2VPblVzZSIgcj0iMSIgY3k9IjAiIGN4PSIwIiBpZD0icGFpbnQxX3JhZGlhbF8yNjIyXzIwNDcxIj4mI3hhOzxzdG9wIHN0b3AtY29sb3I9IiMwMTk1RkYiLz4mI3hhOzxzdG9wIHN0b3AtY29sb3I9IiMxMTQ3RTkiIG9mZnNldD0iMSIvPiYjeGE7PC9yYWRpYWxHcmFkaWVudD4mI3hhOzxyYWRpYWxHcmFkaWVudCBncmFkaWVudFRyYW5zZm9ybT0idHJhbnNsYXRlKDE1LjE2NzggMTUuMDg3NSkgcm90YXRlKDQzLjU2MDEpIHNjYWxlKDI1Ljg3MjcgMjMuNTQ3KSIgZ3JhZGllbnRVbml0cz0idXNlclNwYWNlT25Vc2UiIHI9IjEiIGN5PSIwIiBjeD0iMCIgaWQ9InBhaW50Ml9yYWRpYWxfMjYyMl8yMDQ3MSI+JiN4YTs8c3RvcCBzdG9wLWNvbG9yPSIjMTM0OEZGIi8+JiN4YTs8c3RvcCBzdG9wLWNvbG9yPSIjMDYyMzhEIiBvZmZzZXQ9IjEiLz4mI3hhOzwvcmFkaWFsR3JhZGllbnQ+JiN4YTs8Y2xpcFBhdGggaWQ9ImNsaXAwXzI2MjJfMjA0NzEiPiYjeGE7PHJlY3QgdHJhbnNmb3JtPSJ0cmFuc2xhdGUoMTEgMTAuNTM0OSkiIGZpbGw9IndoaXRlIiBoZWlnaHQ9IjI3IiB3aWR0aD0iMjciLz4mI3hhOzwvY2xpcFBhdGg+JiN4YTs8L2RlZnM+JiN4YTs8L3N2Zz4=" vertex="1" parent="1">
          <mxGeometry x="380.2" y="380" width="49" height="49" as="geometry" />
        </mxCell>
        <mxCell id="k1EBhxcsPVhUVIul-I8J-32" value="" style="endArrow=block;html=1;strokeColor=#cc01dc;bendable=1;rounded=1;endFill=1;endSize=3;sourcePerimeterSpacing=3;startSize=2;startArrow=block;startFill=1;targetPerimeterSpacing=4;jumpStyle=gap;fixDash=1;jumpSize=0;exitX=0.5;exitY=0;exitDx=0;exitDy=0;entryX=0.5;entryY=1;entryDx=0;entryDy=0;" edge="1" parent="1" source="k1EBhxcsPVhUVIul-I8J-31" target="k1EBhxcsPVhUVIul-I8J-1">
          <mxGeometry width="50" height="50" relative="1" as="geometry">
            <mxPoint x="350" y="330" as="sourcePoint" />
            <mxPoint x="470" y="330" as="targetPoint" />
          </mxGeometry>
        </mxCell>
        <mxCell id="k1EBhxcsPVhUVIul-I8J-33" value="" style="endArrow=block;html=1;strokeColor=#cc01dc;bendable=1;rounded=1;endFill=1;endSize=3;sourcePerimeterSpacing=3;startSize=2;startArrow=block;startFill=1;targetPerimeterSpacing=4;jumpStyle=gap;fixDash=1;jumpSize=0;exitX=1;exitY=0.5;exitDx=0;exitDy=0;entryX=0.5;entryY=1;entryDx=0;entryDy=0;" edge="1" parent="1" source="k1EBhxcsPVhUVIul-I8J-31" target="k1EBhxcsPVhUVIul-I8J-4">
          <mxGeometry width="50" height="50" relative="1" as="geometry">
            <mxPoint x="415" y="390" as="sourcePoint" />
            <mxPoint x="415" y="330" as="targetPoint" />
            <Array as="points">
              <mxPoint x="794" y="405" />
            </Array>
          </mxGeometry>
        </mxCell>
        <mxCell id="k1EBhxcsPVhUVIul-I8J-41" value="" style="group" vertex="1" connectable="0" parent="1">
          <mxGeometry x="590" y="387.5" width="120" height="30" as="geometry" />
        </mxCell>
        <mxCell id="k1EBhxcsPVhUVIul-I8J-43" value="" style="rounded=1;whiteSpace=wrap;html=1;arcSize=30;absoluteArcSize=1;strokeColor=#cc01dc;fillColor=#cc01dc;imageVerticalAlign=top;imageAlign=center;imageWidth=24;imageHeight=16;" vertex="1" parent="k1EBhxcsPVhUVIul-I8J-41">
          <mxGeometry x="40" y="12" width="30" height="10" as="geometry" />
        </mxCell>
        <mxCell id="k1EBhxcsPVhUVIul-I8J-45" value="&lt;font color=&quot;#ffffff&quot; style=&quot;font-size: 6px;&quot;&gt;Trust&lt;/font&gt;" style="text;html=1;align=center;verticalAlign=middle;resizable=0;points=[];autosize=1;strokeColor=none;fillColor=none;" vertex="1" parent="k1EBhxcsPVhUVIul-I8J-41">
          <mxGeometry x="35" width="40" height="30" as="geometry" />
        </mxCell>
        <mxCell id="k1EBhxcsPVhUVIul-I8J-46" value="" style="group;rotation=-90;" vertex="1" connectable="0" parent="1">
          <mxGeometry x="342" y="332" width="120" height="30" as="geometry" />
        </mxCell>
        <mxCell id="k1EBhxcsPVhUVIul-I8J-47" value="" style="rounded=1;whiteSpace=wrap;html=1;arcSize=30;absoluteArcSize=1;strokeColor=#cc01dc;fillColor=#cc01dc;imageVerticalAlign=top;imageAlign=center;imageWidth=24;imageHeight=16;rotation=-90;" vertex="1" parent="k1EBhxcsPVhUVIul-I8J-46">
          <mxGeometry x="47" y="15" width="30" height="10" as="geometry" />
        </mxCell>
        <mxCell id="k1EBhxcsPVhUVIul-I8J-48" value="&lt;font color=&quot;#ffffff&quot; style=&quot;font-size: 6px;&quot;&gt;Trust&lt;/font&gt;" style="text;html=1;align=center;verticalAlign=middle;resizable=0;points=[];autosize=1;strokeColor=none;fillColor=none;rotation=-90;" vertex="1" parent="k1EBhxcsPVhUVIul-I8J-46">
          <mxGeometry x="40" y="5" width="40" height="30" as="geometry" />
        </mxCell>
        <mxCell id="k1EBhxcsPVhUVIul-I8J-50" value="SAP Business Technology Platform" style="text;html=1;strokeColor=none;fillColor=none;align=center;verticalAlign=middle;whiteSpace=wrap;rounded=0;fontStyle=1;fontSize=14;fontColor=#1A2733;" vertex="1" parent="1">
          <mxGeometry x="175.2" y="64" width="244.8" height="30" as="geometry" />
        </mxCell>
        <mxCell id="k1EBhxcsPVhUVIul-I8J-51" value="Sub Account" style="text;html=1;strokeColor=none;fillColor=none;align=center;verticalAlign=middle;whiteSpace=wrap;rounded=0;fontColor=#1A2733;fontStyle=1" vertex="1" parent="1">
          <mxGeometry x="180" y="100" width="80" height="30" as="geometry" />
        </mxCell>
        <mxCell id="k1EBhxcsPVhUVIul-I8J-52" value="Cloud Foundry Runtime" style="text;html=1;strokeColor=none;fillColor=none;align=center;verticalAlign=middle;whiteSpace=wrap;rounded=0;fontColor=#5B738B;fontStyle=1;fontSize=10;" vertex="1" parent="1">
          <mxGeometry x="170" y="119" width="150" height="30" as="geometry" />
        </mxCell>
        <mxCell id="k1EBhxcsPVhUVIul-I8J-53" value="SAP S/4HANA Cloud" style="text;html=1;strokeColor=none;fillColor=none;align=center;verticalAlign=middle;whiteSpace=wrap;rounded=0;fontColor=#1A2733;fontStyle=1" vertex="1" parent="1">
          <mxGeometry x="733.5" y="138" width="120" height="30" as="geometry" />
        </mxCell>
        <mxCell id="k1EBhxcsPVhUVIul-I8J-54" value="Application Clients" style="text;html=1;strokeColor=none;fillColor=none;align=center;verticalAlign=middle;whiteSpace=wrap;rounded=0;fontColor=#1A2733;fontStyle=1" vertex="1" parent="1">
          <mxGeometry x="11" y="99" width="120" height="30" as="geometry" />
        </mxCell>
        <mxCell id="k1EBhxcsPVhUVIul-I8J-55" value="SAP Build Work Zone" style="text;html=1;strokeColor=none;fillColor=none;align=center;verticalAlign=middle;whiteSpace=wrap;rounded=0;fontColor=#5B738B;fontStyle=1;fontSize=10;" vertex="1" parent="1">
          <mxGeometry x="175.2" y="284" width="150" height="30" as="geometry" />
        </mxCell>
        <mxCell id="k1EBhxcsPVhUVIul-I8J-56" value="HTML5 App Rep." style="text;html=1;strokeColor=none;fillColor=none;align=center;verticalAlign=middle;whiteSpace=wrap;rounded=0;fontColor=#5B738B;fontStyle=1;fontSize=10;" vertex="1" parent="1">
          <mxGeometry x="299.5" y="239" width="150" height="30" as="geometry" />
        </mxCell>
        <mxCell id="k1EBhxcsPVhUVIul-I8J-57" value="Destination" style="text;html=1;strokeColor=none;fillColor=none;align=center;verticalAlign=middle;whiteSpace=wrap;rounded=0;fontColor=#5B738B;fontStyle=1;fontSize=10;" vertex="1" parent="1">
          <mxGeometry x="379.5" y="284" width="150" height="30" as="geometry" />
        </mxCell>
        <mxCell id="k1EBhxcsPVhUVIul-I8J-58" value="Connectivity" style="text;html=1;strokeColor=none;fillColor=none;align=center;verticalAlign=middle;whiteSpace=wrap;rounded=0;fontColor=#5B738B;fontStyle=1;fontSize=10;" vertex="1" parent="1">
          <mxGeometry x="459.5" y="239" width="150" height="30" as="geometry" />
        </mxCell>
        <mxCell id="k1EBhxcsPVhUVIul-I8J-59" value="SAP Task Center" style="text;html=1;strokeColor=none;fillColor=none;align=center;verticalAlign=middle;whiteSpace=wrap;rounded=0;fontColor=#5B738B;fontStyle=1;fontSize=10;" vertex="1" parent="1">
          <mxGeometry x="462" y="160.5" width="150" height="30" as="geometry" />
        </mxCell>
        <mxCell id="k1EBhxcsPVhUVIul-I8J-60" value="SAP Cloud Identity Services" style="text;html=1;strokeColor=none;fillColor=none;align=center;verticalAlign=middle;whiteSpace=wrap;rounded=0;fontColor=#5B738B;fontStyle=1;fontSize=10;" vertex="1" parent="1">
          <mxGeometry x="329.7" y="440" width="150" height="30" as="geometry" />
        </mxCell>
        <mxCell id="k1EBhxcsPVhUVIul-I8J-61" value="End User" style="text;html=1;strokeColor=none;fillColor=none;align=center;verticalAlign=middle;whiteSpace=wrap;rounded=0;fontColor=#5B738B;fontStyle=1;fontSize=10;" vertex="1" parent="1">
          <mxGeometry y="4" width="150" height="30" as="geometry" />
        </mxCell>
        <mxCell id="k1EBhxcsPVhUVIul-I8J-62" value="Web Client" style="text;html=1;strokeColor=none;fillColor=none;align=center;verticalAlign=middle;whiteSpace=wrap;rounded=0;fontColor=#5B738B;fontStyle=1;fontSize=10;" vertex="1" parent="1">
          <mxGeometry y="174" width="150" height="30" as="geometry" />
        </mxCell>
        <mxCell id="k1EBhxcsPVhUVIul-I8J-67" value="Mobile" style="text;html=1;strokeColor=none;fillColor=none;align=center;verticalAlign=middle;whiteSpace=wrap;rounded=0;fontColor=#5B738B;fontStyle=1;fontSize=10;" vertex="1" parent="1">
          <mxGeometry x="-4" y="252" width="150" height="30" as="geometry" />
        </mxCell>
      </root>
    </mxGraphModel>
  </diagram>
</mxfile>
